<svg width="1240" height="1002" viewBox="0 0 1240 1002" fill="none" xmlns="http://www.w3.org/2000/svg">
<path d="M836.074 948.176H745.58C741.327 936.629 747.58 930.149 755.14 924.642C768.887 914.616 770.354 903.002 761.967 888.509C755.074 876.616 747.861 864.562 745.967 847.176C792.007 859.416 837.3 861.109 881.86 866.816C881.14 901.896 860.247 924.496 836.074 948.176ZM722.434 203.469C723.394 196.269 728.167 193.256 734.607 189.176C757.5 217.069 788.754 233.816 817.287 254.162C821.207 256.962 822.847 260.549 818.914 267.402C788.994 241.629 755.594 222.922 722.434 203.469ZM518.78 183.802C514.14 177.136 512.26 171.402 513.54 164.416C521.834 160.176 530.301 158.176 541.301 161.056C537.261 174.029 528.127 178.629 518.78 183.802ZM510.687 309.562V287.096C517.46 285.802 521.287 289.749 526.54 292.296C524.74 301.496 522.247 308.776 510.687 309.562ZM502.447 230.123C493.527 217.749 486.647 204.549 480.487 189.536C493.087 188.162 504.02 187.629 515.42 192.269C520.114 207.189 519.647 220.309 502.447 230.123ZM467.234 188.856C481.301 198.989 500.954 239.656 500.954 259.029C487.807 237.042 474.607 215.309 467.234 188.856ZM504.287 165.202C507.66 171.776 508.887 176.189 507.687 181.723C497.514 183.523 487.447 184.149 476.78 178.429C484.847 170.429 494.74 169.096 504.287 165.202ZM531.06 126.816C535.874 135.189 539.341 142.749 538.234 152.669C529.901 153.829 521.647 154.976 513.114 156.162C507.167 148.096 507.394 138.922 504.994 130.002C513.434 125.069 521.634 125.429 531.06 126.816ZM1198.65 965.082C1135.19 957.989 1071.39 956.189 1007.71 952.776C1003.57 952.549 997.927 954.882 995.101 948.442C1004.66 940.522 1014.05 932.642 1023.53 928.042C1030.18 926.309 1033.65 933.389 1041.17 928.082C1038.81 913.562 1057.26 909.909 1061.86 897.322C1054.25 879.962 1051.01 861.522 1035.61 849.269C1024.02 840.056 1010.77 831.776 1010.21 818.296C985.247 801.389 961.007 789.322 941.46 767.282C949.927 763.242 956.607 760.176 963.167 756.869C981.767 747.496 998.007 734.842 1007.55 716.216C1031.89 668.629 1040.23 618.922 1022.82 566.989C1019.85 558.136 1018.17 549.989 1019.9 540.536C1022.35 527.242 1022.49 513.749 1013.83 501.936C989.461 468.642 966.62 434.189 939.047 403.309C919.06 380.909 898.9 358.642 882.154 333.602C879.127 329.082 873.487 325.083 877.901 316.709C899.941 327.883 925.9 331.803 937.22 358.776C942.154 370.549 949.967 381.389 959.86 389.762C974.354 402.029 986.594 415.829 995.701 432.589C999.541 439.669 1000.17 439.336 1011.14 444.176C996.567 430.616 993.794 415.829 994.234 398.816C994.927 373.349 982.94 356.549 956.594 349.496C934.314 343.496 922.194 331.882 916.247 309.562C909.02 282.496 890.114 267.082 860.967 266.936C847.034 266.869 840.394 258.509 838.14 246.496C832.527 216.402 812.14 202.429 784.674 195.776C778.514 194.296 772.207 193.442 766.287 192.349C762.34 182.122 761.607 172.736 761.101 162.949C765.887 160.682 770.154 158.682 774.407 156.682C775.674 148.282 776.927 140.456 774.954 132.882C769.887 128.549 762.58 132.336 757.62 126.069C755.754 117.802 753.634 108.469 751.994 101.176C753.114 93.8692 760.86 93.909 760.407 86.4957C757.834 80.989 754.687 74.2824 751.54 67.5624C746.314 66.8024 741.661 66.1358 736.927 65.4559C714.207 35.9225 685.394 16.8425 648.34 11.6559C645.994 7.70919 643.86 4.16236 641.487 0.229031C633.82 0.322364 626.38 -0.610865 618.02 2.46914C617.394 12.5091 609.074 13.5491 601.167 15.1358C573.594 20.6291 547.567 30.0825 523.54 44.8691C493.927 63.0825 475.287 87.9224 475.194 124.162C481.18 130.362 489.86 125.576 497.127 129.816C500.874 138.496 504.607 147.736 503.687 158.669C494.407 162.482 485.461 165.936 476.701 169.789C460.301 177.016 457.26 183.176 464.26 199.949C471.247 216.722 479.647 232.936 487.62 249.296C496.047 266.522 507.007 282.829 503.807 303.643C502.954 309.203 505.714 314.083 511.66 316.789C525.794 315.589 529.567 301.389 539.967 293.043C561.541 295.496 580.9 287.736 597.114 271.696C602.754 277.482 607.5 281.736 608.887 290.096C597.634 303.069 580.914 310.029 567.42 321.082C541.514 342.309 531.9 368.522 541.207 401.136C542.367 405.202 543.234 409.336 544.26 413.469C522.007 438.096 500.167 462.269 479.567 485.082C409.941 489.362 343.794 508.749 274.154 496.896C268.9 488.349 257.874 481.722 253.874 470.082C262.94 463.189 272.78 468.509 284.02 464.122C270.087 459.802 258.3 463.856 245.407 461.709C238.247 434.763 210.341 430.162 186.994 413.789C210.834 413.962 230.127 413.922 241.834 395.002C222.887 412.229 200.527 410.549 177.874 406.296C160.247 402.976 144.94 393.736 129.074 385.976C105.767 374.589 81.4606 369.469 55.7673 375.349C25.1273 382.336 12.234 403.482 19.234 433.936C20.5273 439.522 23.7404 444.842 22.4204 450.736C1.16709 465.536 -3.72614 477.362 2.72719 497.989C20.3539 554.309 78.8471 598.789 137.754 600.936C142.674 601.109 148.594 598.736 152.74 605.122C142.367 625.722 124.674 641.709 114.261 662.536C132.874 643.509 148.434 622.122 163.42 600.749C180.354 600.229 180.447 618.122 191.62 624.989C190.554 614.616 182.367 608.642 182.567 598.922C214.114 592.189 243.261 580.562 268.061 562.896C284.381 562.896 299.434 561.963 314.354 563.043C373.26 567.309 432.101 582.629 495.501 559.896C481.354 580.522 470.94 597.669 482.394 618.256C463.367 643.149 482.234 663.603 488.927 686.043C482.42 695.309 482.541 704.749 489.634 714.109C494.607 716.056 499.527 717.989 504.46 719.922C506.314 723.496 509.167 726.682 509.527 730.149C511.127 745.642 517.66 757.282 531.02 766.136C536.167 769.536 542.194 775.869 542.02 783.162C541.74 794.616 549.474 799.749 556.327 806.616C578.287 828.549 586.767 856.656 593.487 886.202C568.407 893.456 544.554 894.776 522.727 903.456C521.007 908.762 519.607 913.162 518.127 917.709C500.34 922.442 492.3 934.616 492.154 951.429C479.554 955.122 468.234 954.389 457.047 954.789C397.047 956.896 337.047 958.962 277.527 967.562C271.034 968.496 263.354 967.976 259.447 975.682C264.167 982.296 271.487 982.549 278.167 983.669C335.981 993.362 394.447 994.202 452.82 996.416C604.487 1002.19 756.22 1001.74 907.954 999.749C1006.03 998.482 1104.18 997.456 1201.83 986.602C1214.15 985.229 1227.45 985.936 1239.27 975.469C1226.21 966.109 1211.99 966.576 1198.65 965.082Z" fill="currentColor"/>
</svg>
