<svg width="1023" height="1085" viewBox="0 0 1023 1085" fill="none" xmlns="http://www.w3.org/2000/svg">
<path d="M970.213 844.395C970.333 844.515 970.48 844.648 970.6 844.741C970.133 844.795 969.693 844.848 969.24 844.901C969.573 844.728 969.907 844.568 970.213 844.395ZM894.56 816.568C910.094 825.275 915.973 839.795 927.573 851.461C914.307 849.435 904.107 838.341 894.56 816.568ZM362.987 172.568C405.067 154.101 430.947 115.501 469.947 88.8346C472.027 101.995 473.747 112.968 475.4 123.501C447.12 161.368 403.04 161.901 362.987 172.568ZM630.413 886.795C625.613 888.408 623.133 885.021 620.333 882.341C623.68 883.808 627.053 885.315 630.413 886.795ZM1006.53 809.221C1011.71 800.101 1016.52 791.608 1022.08 781.808C1014.43 741.288 976.04 727.301 949.573 701.261C952.44 695.875 941.2 689.301 950.813 683.395C945.347 673.728 933.627 678.688 926.573 673.088C922.773 670.075 912.52 673.301 915.707 663.235C894.72 669.728 875.787 655.488 856.053 656.408C827.933 657.768 812.08 642.475 794.107 624.475C745.587 575.875 708.453 518.048 663.04 466.875C639.893 440.795 617.08 410.368 612.627 373.808C607.107 328.675 589.56 289.621 564.027 253.101C559.547 246.728 552.707 241.381 552.467 232.768C576.6 213.515 576.64 213.661 605.76 217.235C618.654 218.821 632.947 222.848 639.96 206.435C652.747 176.608 673.613 148.128 656.72 112.861C655.867 111.101 657.067 108.328 657.28 106.341C733.52 93.328 738.253 90.968 738.907 63.2746C723.933 63.2746 708.973 63.608 694.04 63.168C683.907 62.8746 674.613 60.768 667.6 51.608C615.36 -16.5521 527.987 -17.2054 478.8 51.3946C468.6 52.6346 457.573 55.2213 446.587 55.1147C403.56 54.688 383.494 66.6613 371.76 108.275C364.56 133.755 350.853 151.501 329.707 165.568C319.813 172.128 310.76 180.021 301.613 187.648C288.507 198.568 274.894 208.208 257.894 212.501C238.627 217.408 225.507 207.715 211.88 189.381C213.107 212.955 227.973 219.008 239.32 227.568C206.973 257.941 165.547 274.848 136.773 307.488C131.28 309.928 124.92 305.968 120.133 310.675C106.747 325.141 103.613 345.648 85.5601 358.555C-4.38657 422.968 -12.3065 504.848 61.3068 587.461C72.6402 600.168 85.5067 611.075 99.4001 620.901C117.827 633.941 136.44 646.755 154.347 660.475C171.067 673.301 185.533 688.501 198.613 704.701C152.36 746.715 118.333 793.581 102.347 852.635C92.8935 887.555 78.7734 920.875 62.8268 953.261C56.3734 951.968 52.6401 945.315 44.4534 949.608C36.3068 955.301 36.1468 966.768 32.5468 976.541C19.7335 989.194 5.36009 1000.7 0.426758 1022.39C4.46676 1025.93 9.10684 1029.98 16.6402 1036.59C18.2402 1039.11 10.3601 1049.17 22.7334 1052.75C26.2001 1049.87 30.2134 1046.53 33.5601 1043.75C46.3868 1046.34 58.9602 1046.75 62.0402 1061.73C84.4935 1047.81 101.84 1066.21 117.8 1066.51C127.427 1070.55 122.04 1081.45 131.013 1081.63C137.733 1081.85 134.493 1072.01 145.707 1072.07C149.867 1072.37 158.613 1072.98 163.747 1073.33C173.107 1075.31 171.547 1085.27 180.4 1083.98C182.667 1080.7 185.387 1076.81 187.68 1073.5C246.413 1067.94 253.067 1063.97 246.907 1035.67C204.307 1021.78 161 1005.46 138.307 959.928C141.72 952.861 143.693 946.728 147.227 941.741C190.68 880.541 234.694 819.395 306.16 787.595C344.187 770.675 353.053 739.661 352.707 703.301C352.467 677.208 344.733 652.755 331.64 629.928C326.867 621.581 319.427 614.115 319.227 602.901C365.12 597.728 410.347 590.328 462.867 596.515C455.493 689.395 517.733 768.475 513.987 859.421C491.987 879.781 492.934 908.341 477.294 930.128C488.307 935.515 487.4 947.141 495.333 952.261C511.56 942.435 526.92 945.808 536.053 957.181C582.893 951.128 625.48 968.795 673.32 961.341C681.6 954.635 695.533 952.395 713.187 963.581C709.267 949.955 718.827 943.808 720.227 934.648C716.814 919.635 703.267 919.408 692.533 915.635C675.12 909.501 655.387 909.501 640.813 895.915C637.587 895.368 634.334 894.835 631.094 894.288C631.094 894.275 631.094 894.275 631.094 894.248C634.254 893.448 637.44 892.621 640.64 891.821C636.667 880.035 623.507 878.541 616.48 870.128C612.36 866.861 622.307 860.435 613.76 858.061C607.547 856.141 605.52 865.981 594.494 861.595C574.92 780.208 584.507 694.901 580.48 612.221C585.747 606.208 589.4 602.008 593.373 597.461C590.6 578.208 587.253 559.128 585.187 539.941C581.813 508.795 566.093 488.475 536.653 476.861C511.52 466.968 486.507 457.208 460.2 451.061C444.2 447.341 428.2 443.555 408.053 438.835C438.4 422.141 468.107 411.688 484.6 383.328C496.013 392.595 493.8 407.795 503.48 416.901C515.107 420.741 526.147 410.061 539.24 414.821C587.147 503.021 650.333 578.941 734 636.995C746.267 645.488 757.027 656.328 767.64 666.915C774.787 674.008 779.32 683.088 779.973 693.328C776.48 698.101 773.227 702.581 769.813 707.261C773.24 719.568 821.507 850.741 839.787 866.515C840.293 874.608 874.147 875.301 879.32 891.941C883.24 889.341 886.653 887.061 889.947 884.875C902.467 890.141 913.56 899.395 928.867 891.941C931.893 887.008 935.44 881.261 939.547 874.568C964.133 879.941 969.347 864.341 970.667 844.821C978.453 852.275 986.44 850.368 993.24 843.595C999.707 837.141 999.64 829.035 995.44 820.995C986.027 802.915 971.48 789.008 958.013 774.181C948.32 763.528 936.16 754.835 931.173 739.981C960.76 757.608 991.52 773.728 1006.53 809.221ZM640.694 895.808C640.734 895.848 640.787 895.875 640.813 895.915C640.96 895.928 641.093 895.968 641.24 895.981L640.694 895.808ZM640.64 891.821C640.667 891.861 640.68 891.915 640.694 891.941L641.12 891.701C640.96 891.728 640.8 891.781 640.64 891.821Z" fill="currentColor"/>
</svg>
