<svg width="1516" height="1588" viewBox="0 0 1516 1588" fill="none" xmlns="http://www.w3.org/2000/svg">
<path fill-rule="evenodd" clip-rule="evenodd" d="M1451.55 1457.96L1458.49 1454.19C1467.15 1457.05 1475.43 1463.98 1484.43 1472.24C1479.08 1470.72 1474.3 1467.84 1469.69 1465.05C1463.65 1461.41 1457.9 1457.94 1451.55 1457.96ZM1484.47 1500C1468.65 1488.65 1453.25 1477.6 1436.93 1465.91L1416.76 1476.88L1337.43 1330.98L1343.67 1327.59C1339.89 1318.1 1336.17 1308.61 1332.45 1299.14L1332.4 1299.02L1332.4 1299.02C1308.52 1238.23 1284.91 1178.15 1251.82 1121.81C1252.26 1120.32 1252.71 1118.78 1253.17 1117.22L1253.52 1116.03C1254.39 1113.05 1255.29 1109.99 1256.16 1107.04C1246.38 1087.08 1234.71 1069.28 1218.3 1054.88C1210.16 1047.73 1204.82 1039.48 1204.48 1027.97C1203.65 1000.04 1194.89 973.997 1183.67 948.757C1164.25 905.082 1140.44 863.729 1116.64 822.401L1116.64 822.399L1114.11 818.006C1113.25 816.514 1112.39 815.022 1111.53 813.53C1108.59 808.424 1104.69 802.944 1099.8 800.024C1075.17 785.349 1064.35 761.99 1053.67 738.929C1049.16 729.198 1044.68 719.52 1039.19 710.57C1056.47 689.837 1053.43 677.184 1039.1 662.13C1046.8 627.597 1054.02 592.637 1044.6 556.664C1041.13 543.433 1038.22 530.056 1035.32 516.674L1035.31 516.666L1035.31 516.663L1035.31 516.657L1035.31 516.652C1033.55 508.559 1031.79 500.464 1029.91 492.397C1023.06 463.197 1023.15 433.957 1026.88 405.464C1066.76 386.137 1066.74 386.061 1053.35 345.251L1052.69 343.237C1045.53 321.384 1040.29 298.757 1035.98 276.13C1028.98 239.264 1011.99 212.637 971.995 206.544C971.475 206.473 971.044 205.806 970.545 205.034L970.544 205.033C970.293 204.645 970.025 204.23 969.719 203.85C969.758 198.421 971.714 193.313 973.709 188.102C976.202 181.592 978.756 174.921 977.709 167.264C970.658 164.622 962.084 164.777 953.501 164.932C934.231 165.28 914.917 165.629 912.69 134.33C920.553 129.794 929.556 128.177 938.418 126.587C952.762 124.012 966.736 121.503 974.91 106.784C967.088 95.031 956.944 94.4933 948.161 94.0276L948.085 94.0236C922.927 92.6903 908.586 81.397 901.017 56.4903C891.127 23.9303 866.014 7.31717 832.634 2.50383C811.653 -0.509502 790.888 0.997158 770.327 5.03716C699.623 18.9305 661.415 73.197 671.812 144.544C673.147 153.708 674.59 162.861 675.998 171.793C676.655 175.961 677.304 180.08 677.931 184.13C670.982 190.16 663.867 190.197 656.927 190.234C655.657 190.24 654.393 190.247 653.137 190.29C622.845 191.304 601.979 210.09 596.875 240.21C595.5 248.329 595.284 256.552 595.068 264.773C594.779 275.793 594.49 286.811 591.409 297.571C591.118 298.558 591.202 299.654 591.282 300.687C591.317 301.146 591.351 301.592 591.351 302.01C593.996 303.013 595.651 301.436 597.244 299.917C598.83 298.406 600.354 296.953 602.734 298.157C603.946 299.718 603.782 301.558 603.616 303.424C603.39 305.957 603.161 308.54 606.358 310.544C607.136 309.54 607.911 308.54 608.694 307.532C609.954 305.907 611.232 304.26 612.568 302.539L612.632 302.457C615.94 298.194 619.602 293.475 624.209 287.53C623.979 291.802 623.792 295.313 623.628 298.399L623.627 298.406C623.388 302.907 623.196 306.504 622.99 310.237C626.041 310.057 627.656 311.961 629.331 313.937C630.634 315.474 631.973 317.054 634.054 317.73C650.847 310.522 662.503 297.346 674.104 284.233C675.935 282.162 677.765 280.094 679.614 278.051C693.563 262.584 705.322 245.437 714.617 228.037C734.859 225.291 740.094 237.824 743.53 252.024C746.879 265.85 745.213 280.237 732.278 286.797C699.581 303.384 677.627 330.33 656.558 358.664C642.478 377.61 637.055 398.544 638.896 422.21C640.752 445.93 644.334 468.904 658.327 490.504C653.589 492.458 648.644 493.89 643.812 495.29C629.156 499.536 615.533 503.483 611.825 520.771C609.772 521.21 607.865 521.614 606.062 521.997C601.622 522.939 597.809 523.748 594.005 524.61C514.593 542.561 434.067 553.334 353.529 564.107C328.963 567.394 304.395 570.68 279.858 574.171C208.929 584.267 138.889 599.417 68.8735 614.561C54.0095 617.776 39.1468 620.991 24.2769 624.157C3.30967 628.624 -3.15754 641.37 2.23673 663.917C7.93513 687.73 17.3023 694.517 39.1399 689.637C62.1552 684.478 85.199 679.438 108.243 674.397L108.246 674.396C173.764 660.064 239.287 645.732 304.174 628.677C329.564 621.995 354.236 613.072 378.916 604.145L378.917 604.145L378.917 604.145L378.918 604.145L378.919 604.144C411.562 592.338 444.219 580.526 478.569 573.89C510.75 567.668 542.709 560.252 574.086 552.97L574.089 552.97C587.824 549.782 601.447 546.621 614.929 543.597C626.891 550.984 636.606 556.97 646.409 563.01C649.117 562.845 651.832 562.559 654.571 562.269H654.572H654.572H654.573C665.559 561.11 676.936 559.909 689.865 566.344C704.51 611.997 736.352 648.77 771.327 680.53C773.516 695.504 769.529 705.33 760.293 714.037C745.139 728.33 737.455 747.851 732.249 766.837C724.825 793.837 724.23 822.184 728.045 850.317C731.888 878.642 739.648 906.024 747.717 934.501C749.296 940.072 750.886 945.686 752.462 951.357C754.681 952.944 758.494 955.651 762.439 958.45C756.612 967.3 760.298 972.368 763.679 977.017C765.203 979.113 766.666 981.124 767.166 983.357C768.345 1012.53 769.528 1041.71 770.714 1070.99L770.736 1071.53C772.139 1106.16 773.549 1140.94 774.967 1176.06C771.581 1180.79 766.763 1184.35 761.87 1187.97L761.87 1187.97C754.821 1193.19 747.617 1198.51 744.314 1207.6H726.898C723.883 1211.88 721.142 1215.77 718.459 1219.58C638.887 1233.34 576.808 1278.6 516.891 1322.3L516.887 1322.3C502.625 1332.7 488.486 1343.01 474.262 1352.78C443.843 1350.58 417.425 1354.44 391.579 1358.21C388.029 1358.73 384.49 1359.24 380.953 1359.74C368.541 1361.49 364.93 1373.74 363.249 1385.01C362.16 1392.33 361.457 1399.7 360.816 1406.42C360.56 1409.1 360.314 1411.68 360.058 1414.1C358.092 1416.97 354.945 1417.53 352.002 1418.05C348.044 1418.76 344.457 1419.4 344.615 1425.49C346.803 1427.52 349.554 1427.66 352.367 1427.81C355.762 1427.99 359.247 1428.17 361.943 1431.68C366.177 1447.85 368.701 1465.01 364.858 1482.3C364.226 1485.17 361.781 1486.28 359.298 1487.39C356.085 1488.84 352.808 1490.31 353.315 1495.69C357.926 1496.21 362.581 1496.74 368.077 1497.38C369.353 1501.4 370.623 1505.39 371.836 1509.2L371.846 1509.23C374.449 1517.41 376.79 1524.77 378.371 1529.76C378.45 1534.99 375.978 1538.2 373.861 1540.95C371.313 1544.26 369.282 1546.9 372.847 1551.58C375.947 1553.31 378.55 1552.04 381.203 1550.74C383.613 1549.56 386.066 1548.36 388.971 1549.37C391.258 1551.6 393.531 1553.93 395.829 1556.28L395.834 1556.28C401.011 1561.57 406.309 1566.99 412.143 1571.77C424.41 1581.81 438.997 1584.93 453.962 1579.54C467.007 1574.84 468.554 1562.82 470.024 1551.4C470.176 1550.22 470.328 1549.04 470.491 1547.88C471.391 1541.41 471.101 1534.66 470.55 1528.1C468.129 1499.42 482.353 1477.89 498.985 1457.57C502.931 1458.46 506.725 1460.36 510.469 1462.25C519.437 1466.75 528.117 1471.11 537.918 1460.98C534.633 1449.9 526.733 1447.99 517.801 1445.82C513.486 1444.78 508.93 1443.67 504.538 1441.45C564.529 1398.94 631.992 1378.55 698.936 1358.32L698.937 1358.32L698.94 1358.32C729.807 1348.99 760.562 1339.69 790.424 1328.28C792.225 1328.69 794.022 1329.27 795.793 1329.84C799.556 1331.06 803.206 1332.24 806.549 1331.66C838.434 1326.13 867.623 1318.01 884.139 1284.36C899.353 1253.37 909.565 1220.82 919.778 1188.26C924.01 1174.77 928.242 1161.28 932.83 1147.9C947.882 1104.04 961.817 1059.82 971.734 1009.77C989.535 1032.19 1009 1051.06 1027.97 1069.46L1027.97 1069.46C1043.06 1084.09 1057.84 1098.42 1071.24 1114C1074.65 1117.97 1078.24 1121.84 1081.86 1125.73L1081.86 1125.73L1081.86 1125.73C1091.78 1136.4 1101.91 1147.29 1109.17 1161.38C1112.87 1168.57 1115.76 1176.3 1118.68 1184.09C1125.74 1202.91 1132.94 1222.13 1152.03 1235.14C1154.2 1235.48 1158.4 1236.14 1162.95 1236.88C1182.38 1278.2 1207.88 1315.26 1234.7 1351.57C1249.59 1371.72 1264.13 1392.14 1278.67 1412.55L1278.68 1412.57L1278.68 1412.58L1278.69 1412.58L1278.69 1412.59C1286.79 1423.95 1294.88 1435.32 1303.03 1446.64C1313.27 1460.82 1318.95 1475.64 1317.26 1494.04C1316.9 1497.91 1316.84 1501.83 1316.78 1505.75C1316.57 1520.29 1316.35 1534.97 1300.79 1548.41C1314.54 1548.17 1321.89 1554.38 1328.64 1560.09C1332.73 1563.54 1336.61 1566.82 1341.55 1568.36C1398.5 1586.13 1456.27 1593.29 1515.31 1580.85L1515.43 1580.83V1529.53C1509.47 1525.88 1503.36 1522.39 1497.15 1518.85C1493.25 1516.62 1489.3 1514.37 1485.33 1512.04C1485.24 1510.71 1485.14 1509.38 1485.05 1508.05C1484.94 1506.48 1484.83 1504.92 1484.72 1503.4L1484.71 1503.29C1484.63 1502.16 1484.55 1501.06 1484.47 1500ZM953.986 204.571C951.285 204.426 948.571 204.5 945.834 204.575C937.243 204.811 928.428 205.053 919.112 198.53C928.257 187.27 939.549 185.672 951.157 184.03C955.012 183.485 958.902 182.934 962.759 182.024C962.557 188.549 959.944 193.28 957.284 198.095C956.129 200.186 954.965 202.293 953.986 204.571ZM532.814 1458.08C522.678 1465.33 518.125 1464.17 504.77 1450.78C516.022 1448.37 525.085 1449.57 532.814 1458.08Z" fill="currentColor"/>
</svg>
