<svg width="941" height="1638" viewBox="0 0 941 1638" fill="none" xmlns="http://www.w3.org/2000/svg">
<path d="M713.461 539.27C702.701 538.257 689.981 532.297 672.968 522.564C719.581 510.27 761.808 499.11 809.715 486.47C779.848 514.15 750.221 529.364 713.461 539.27ZM624.488 405.004C649.875 380.59 622.381 347.964 637.381 322.497C705.941 296.617 739.715 345.884 779.795 385.084C772.701 396.79 762.861 404.417 761.448 415.337C714.648 424.937 670.408 424.777 624.488 405.004ZM425.581 360.91C429.915 351.004 432.941 342.844 441.035 337.044C448.208 343.097 446.021 351.87 449.275 358.857C441.395 363.59 434.301 363.284 425.581 360.91ZM153.836 1511C160.151 1526.66 165.679 1535.66 155.917 1548.34C150.232 1537.14 149.988 1527.64 153.836 1511ZM940.435 488.417C933.515 483.83 927.821 492.057 922.701 486.097C907.461 459.324 901.075 424.964 864.821 414.11C849.208 364.484 844.315 361.35 799.008 373.004C754.621 339.404 721.101 294.51 683.381 254.204C605.288 170.777 523.781 90.9771 441.461 11.8838C425.541 -3.42291 411.844 -2.31622 397.5 13.0438C380.776 30.9504 379.499 47.2704 394.508 62.3637C405.984 73.937 418.181 84.817 430.181 95.8304C462.341 125.404 494.581 154.87 529.341 186.71C467.275 195.857 436.821 229.55 439.621 290.697C420.221 285.777 409.063 289.764 401.839 306.47C383.645 348.577 367.184 355.91 321.807 345.71C309.579 342.964 297.053 337.697 279.456 347.684C309.684 342.75 331.305 356.364 355.288 358.737C344.565 362.017 333.981 362.95 323.556 364.737C303.859 368.097 287.8 376.497 281.729 397.457C278.791 407.63 275.799 417.804 272.825 427.964L274.085 429.097C285.963 440.777 286.908 472.817 275.869 492.217C271.548 499.79 266.563 507.03 262.697 514.83C259.145 522.004 254.843 529.284 256.469 543.577C266.371 510.11 282.535 488.297 310.821 477.217C323.853 424.444 355.568 391.004 415.901 379.377C383.488 419.684 339.667 440.817 311.8 478.137C304.173 500.684 294.237 521.537 280.4 541.55C259.023 572.47 241.443 606.177 250.207 647.444C220.677 679.31 185.395 709.23 200.7 758.004C195.085 765.684 187.125 762.537 184.1 768.724C174.951 794.43 179.673 822.484 166.711 848.39C132.809 916.204 145.999 982.257 186.111 1042.43C206.701 1073.34 226.101 1104.62 242.387 1137.74C259.845 1173.19 276.779 1208.84 298.26 1242.11C306.08 1254.2 308.004 1267.6 305.433 1285.44C208.468 1299.72 154.659 1381.22 83.128 1434.94C45.3773 1431.4 10.024 1460.75 0 1503.08C3.30667 1507.88 6.84001 1513.02 9.44668 1516.83C12.7533 1524.79 1.24266 1530.47 9.39466 1537.39C15.1147 1543.63 20.048 1531.43 31.4013 1540.32C59.4426 1555.48 53.0227 1597.16 75.8333 1623.86C79.8747 1621.68 84.44 1619.22 86.3293 1618.2C101.356 1618.34 109.299 1625.23 115.771 1637.1C125.235 1617.48 141.293 1625.56 152.927 1623.35C159.924 1624.66 157.964 1633.58 166.431 1632.95C167.656 1617.71 189.872 1618.94 191.027 1606.38C188.543 1578.75 151.195 1584.16 152.507 1556.96C157.649 1553.39 162.163 1550.24 166.292 1547.35C172.553 1526.88 160.693 1511.78 153.084 1495.99C156.968 1483.51 167.359 1478.02 176.717 1472.15C232.941 1436.88 293.363 1411.31 358 1396.16C394.351 1387.64 421.608 1363.75 448.635 1340.95C464.461 1327.59 455.701 1304 459.795 1285.34C461.141 1279.27 460.701 1272.83 461.608 1266.64C467.488 1226.58 458.955 1187.42 454.368 1148.02C503.515 1180.3 532.355 1228.8 555.408 1280.38C572.115 1317.72 592.288 1352.88 611.221 1388.9C633.155 1430.7 666.568 1466.47 662.875 1521.54C661.248 1545.92 668.195 1576.42 678.288 1604.03C691.795 1596.06 701.048 1602.23 707.461 1614.9C721.155 1597.86 734.581 1611.35 748.048 1611.87C750.555 1616.34 752.861 1620.46 754.648 1623.66C762.288 1626.02 764.408 1615.96 772.621 1619.78C774.968 1622.54 778.368 1626.6 782.661 1631.71C786.275 1626.56 788.928 1622.76 791.315 1619.36C798.621 1618.95 804.861 1618.6 811.221 1618.26C816.461 1620.12 816.075 1629.24 826.608 1627.46C822.635 1612.06 843.261 1612.8 845.888 1597.92C844.195 1591.56 842.141 1583.84 840.168 1576.43C825.688 1565.15 806.128 1564.72 793.621 1551.64C795.221 1547.28 796.661 1543.42 798.901 1537.36C765.941 1525.51 768.861 1480.28 733.341 1471.63C730.995 1463.5 728.581 1456.35 726.861 1449.04C710.208 1378.34 699.275 1306.18 673.715 1237.67C672.461 1234.28 671.181 1229.64 672.488 1226.74C680.541 1208.92 669.995 1196.72 660.355 1184.35C653.061 1174.98 645.115 1166.11 637.488 1157.04C638.448 1145.31 639.955 1133.84 632.141 1124.19C601.101 1085.94 579.888 1042.2 559.048 997.91C531.475 939.257 492.221 887.724 453.781 835.724C454.901 826.884 455.928 818.177 457.128 809.51C457.381 807.804 458.168 806.177 458.181 806.177C515.861 758.55 548.035 696.43 571.141 628.857C581.195 631.897 585.781 638.75 595.755 637.124C605.648 628.017 617.035 617.524 627.728 607.684C630.461 608.084 631.755 608.084 632.888 608.497C637.035 609.937 641.235 611.297 645.208 613.124C706.075 640.99 760.501 635.017 806.475 582.897C815.995 572.084 829.301 563.697 835.981 551.51C851.675 522.897 879.381 516.737 905.555 508.044C911.288 509.884 908.008 519.27 917.528 517.59C927.061 510.43 941.381 505.177 940.435 488.417Z" fill="currentColor"/>
</svg>
