<svg width="1069" height="1578" viewBox="0 0 1069 1578" fill="none" xmlns="http://www.w3.org/2000/svg">
<path d="M556.128 372.877L555.408 373.864L556.461 374.051L556.128 372.877ZM822.221 1443.97C822.488 1462.24 823.328 1462.89 843.088 1461.22C839.728 1452.14 832.755 1447.7 822.221 1443.97ZM810.088 351.731C821.981 361.971 834.115 370.704 837.621 386.704C853.435 390.131 867.288 399.771 884.315 394.371C863.395 373.077 836.381 363.317 810.088 351.731ZM947.195 463.437C946.368 461.744 945.541 460.064 944.715 458.384C938.088 457.477 931.475 456.557 923.688 455.491C891.341 484.651 856.288 497.851 817.488 465.717C806.941 480.957 802.568 495.864 796.248 511.051C815.435 521.091 834.541 527.704 854.381 533.851C888.101 513.131 915.701 485.811 947.195 463.437ZM600.728 336.824C607.928 326.584 621.594 326.224 630.968 318.984C626.714 311.931 623.861 305.837 615.728 303.171C609.581 313.851 599.275 322.411 601.008 336.704L600.208 335.531L600.728 336.824ZM133.741 1421.01C136.928 1421.66 140.115 1422.3 145.555 1423.41C137.515 1431.3 125.274 1425.58 121.434 1436C118.008 1446.36 132.155 1450.86 130.661 1461.34C121.355 1462.84 124.715 1449.04 114.515 1450.34C104.048 1472.3 96.3548 1496.21 91.7282 1521.09C89.3015 1534.13 85.1282 1546.38 78.0615 1557.54C61.9548 1583 35.0747 1584.78 20.6881 1558.32C-1.49861 1517.49 -9.01892 1473.26 14.1011 1430.08C25.6744 1408.44 34.4481 1387.73 35.8214 1362.62C37.9681 1323.45 58.728 1311.44 108.715 1317.29C155.968 1262.88 183.088 1187.01 262.621 1163.48C275.488 1113.01 281.688 1061.89 290.221 1011.14C300.501 949.971 305.795 888.357 310.088 826.624C313.395 779.184 343.314 744.597 366.634 706.944C375.714 692.264 385.888 679.544 384.101 660.451C382.648 645.117 391.981 631.971 403.101 622.944C445.074 588.851 466.675 543.597 480.155 492.677C484.955 474.517 494.474 457.584 503.101 437.091C480.794 444.637 462.328 452.077 447.181 471.691C445.088 449.011 456.248 438.184 471.741 429.477C487.634 420.53 507.035 416.784 517.261 399.971C519.688 318.344 538.875 292.997 611.995 275.21C613.835 257.037 610.768 238.891 609.528 219.557C548.608 181.557 487.981 143.771 427.395 105.891C405.235 92.0372 382.914 78.4105 361.208 63.8771C342.288 51.2105 340.954 40.9305 353.674 20.3572C365.528 1.17054 381.595 -5.36287 398.555 4.67713C421.008 17.9838 442.581 32.8239 464.128 47.5972C518.568 84.9172 572.781 122.571 628.968 161.397C661.981 122.491 706.755 116.61 754.141 120.41C799.168 124.01 823.755 143.197 831.661 186.464C836.701 214.037 848.408 229.997 876.168 234.197C881.874 235.064 888.501 236.504 891.861 244.917C874.328 255.291 853.048 247.984 834.208 255.61C834.208 267.81 834.208 279.317 834.208 291.571C845.154 296.664 858.074 290.317 870.168 295.064C875.741 309.104 866.821 321.477 867.195 339.144C859.808 323.344 869.755 312.411 866.355 300.624C855.581 296.544 844.981 299.117 834.355 300.477C830.328 309.344 826.741 317.251 823.061 325.331C833.421 336.704 846.795 342.184 859.515 348.877C871.648 355.264 883.061 362.984 894.141 369.717C937.701 362.531 964.408 374.33 976.968 411.677C1027.21 419.704 1041.05 430.797 1051.95 472.891C1056.41 475.011 1061.71 477.544 1065.78 479.477C1073.03 491.144 1062.71 504.811 1043.93 510.557C1035.05 507.664 1031.55 495.651 1017.41 495.837C1010.55 497.357 1001.69 503.851 991.995 501.731C976.515 514.184 967.395 529.571 958.421 545.037C943.835 570.171 925.968 592.811 905.755 613.584C891.475 628.264 874.248 634.611 853.368 631.624C822.048 627.131 791.448 619.344 760.634 612.344C722.314 662.931 705.381 727.491 653.034 766.237C653.501 778.304 660.688 785.357 666.048 793.024C730.328 884.904 780.381 983.824 817.355 1089.8C829.128 1123.57 828.168 1157 827.115 1191.24C824.621 1272.28 822.408 1353.33 820.101 1434.1C831.421 1442.42 844.301 1447.32 849.728 1460.38C852.408 1467.3 845.141 1467.41 841.795 1470.73C845.141 1474.58 848.168 1478.09 851.208 1481.6L851.434 1481.53C850.488 1482.44 849.554 1483.33 848.541 1484.3C849.568 1485.08 850.554 1485.82 851.541 1486.57L852.168 1486.33C858.328 1503.5 875.208 1510.7 886.568 1523.04C900.621 1538.32 907.141 1553.82 890.408 1574.93C857.421 1577.98 822.394 1580.25 789.101 1565.98C782.408 1563.1 776.408 1565.49 769.995 1562.3C739.501 1547.12 733.248 1539.8 740.808 1505.97C756.221 1437 741.675 1371.56 721.608 1306.46C712.875 1278.1 710.048 1248.46 702.568 1220.16C692.888 1183.58 686.781 1145 666.621 1112.13C625.515 1045.1 567.181 993.717 507.181 939.757C502.861 948.877 499.395 955.917 496.155 963.051C458.128 1046.93 432.101 1135.69 392.261 1218.81C370.501 1264.21 334.541 1289.06 285.195 1302.7C250.515 1312.28 216.288 1329.97 187.395 1353.66C165.035 1371.98 146.528 1394.16 132.341 1419.61C131.928 1420.08 131.368 1420.5 131.181 1421.05C131.115 1421.26 131.941 1422.1 132.234 1422.05C132.781 1421.94 133.248 1421.38 133.741 1421.01Z" fill="currentColor"/>
</svg>
