<svg width="1176" height="1621" viewBox="0 0 1176 1621" fill="none" xmlns="http://www.w3.org/2000/svg">
<path d="M844.827 1508.06C838.16 1525.82 833.04 1543.52 837.493 1564.76C618.067 1563.72 399.787 1559.66 181.787 1569.6C180.187 1550.56 185.04 1519 191.84 1503.98C204.227 1510.97 216.52 1517.92 231.24 1526.24C223.827 1506.61 207.373 1497.7 197.333 1483.4C199.36 1473.37 206.547 1466.66 212.947 1459.69C230.773 1440.25 251.053 1423.49 273.32 1409.44C310.907 1385.7 348.867 1362.57 383.933 1334.92C422.72 1349 450.654 1333.09 474.414 1304.3C514.947 1255.17 537.28 1197.6 552.067 1136.62C563.307 1090.29 575.96 1044.36 590.733 999.01C592.493 993.583 592.827 987.33 598.014 983.343C604.36 983.45 609.013 987.383 614.04 990.156C654.027 1012.28 689.973 1040.13 726.693 1067.12C775.227 1102.76 794 1151.17 796.76 1208.49C797.027 1213.82 797.293 1219.17 797.6 1225.44C801.6 1229.69 804.893 1233.17 808.52 1237.01C820.24 1305.28 845.12 1371.06 853.08 1440.48C855.693 1463.25 852.96 1486.36 844.827 1508.06ZM919.547 356.543C895 343.943 868.667 334.93 842.227 317.77C858.613 314.316 906.507 339.436 919.547 356.543ZM868.107 523.743C860.587 510.45 853.88 498.543 847.467 487.21C851.64 476.89 858.72 471.543 868 466.636C883.48 473.343 899.52 480.303 918.773 488.663C902.32 502.503 886.4 513.103 868.107 523.743ZM1046.88 1571.84C1050.28 1552.02 1038.8 1544.6 1022.81 1539.64C990.813 1529.72 967.587 1506.72 941.973 1486.94C949.347 1477.58 959.067 1482 966.027 1477.1C968.533 1472.64 960.867 1470.32 963.8 1464.56C964.64 1460.42 973.826 1459.82 971.92 1451.66C956.653 1449.64 945.56 1456.9 936.827 1467.57C924.44 1461.93 925.373 1452.06 925.8 1442.26C928.773 1371.61 934.773 1300.94 928.227 1230.2C926.813 1215.05 925.653 1200.48 934.667 1186.84C938.667 1180.78 937.107 1173.69 935.8 1166.6C925.24 1109.37 908.173 1054.97 879.493 1003.46C841.947 936.063 809.36 865.93 756.36 808.29C746.32 797.37 739 783.956 728.4 768.823C766.573 719.063 780.88 656.89 808.067 599.583C824.72 606.623 838.853 616.25 853.36 625.143C864.627 632.063 876.24 633.143 886.173 624.263C922 592.25 962.24 564.61 987.213 521.73C998.72 501.97 1011.76 483.09 1024.31 463.516C1047.97 462.996 1071.39 461.023 1096.09 450.17C1097.49 452.503 1098.99 455.41 1100.84 458.05C1103.03 461.103 1105.45 464.01 1109.52 464.73C1126.19 458.383 1131.79 449.396 1129.6 431.956C1120.97 428.583 1110.96 427.023 1106.45 416.996C1093.53 392.49 1081.32 368.663 1051.57 357.663C1033.21 350.876 1014.15 343.09 999.907 327.183C984.107 309.503 967.44 307.743 946.2 318.61C940.587 321.49 935.227 324.836 929.333 328.183C910.04 316.076 889.4 307.183 871.853 293.516C876.026 282.65 884.56 275.516 883.2 265.21C881.893 255.236 879.186 245.45 876.986 235.17C893.106 215.81 922.413 228.89 938.373 211.183C935.093 203.543 929.333 202.543 924.293 201.943C896.707 198.676 883.427 183.143 879.947 155.836C877.24 134.596 866.373 116.743 849.773 102.41C808.347 66.6631 699.64 77.3164 681.56 153.476C680.053 159.836 680.4 167.396 674.147 172.516C672.054 171.423 670.04 170.65 668.333 169.476C595.813 119.596 518.76 77.2098 442.6 33.3964C424.947 23.2498 407.32 12.9697 389.133 3.8764C373.373 -4.01693 362.547 0.276399 354.48 15.5431C343.587 36.2231 349.533 55.5165 371.773 68.3832C450.213 113.73 530.467 155.69 611.147 196.876C633.027 208.036 654.72 219.583 675.573 230.45C677.067 240.383 677.066 240.383 673.986 248.076C645.813 241.423 631.24 248.663 619.32 275.196C601.76 314.343 584.026 319.583 548.053 296.356C541.76 292.29 535.587 287.97 528.973 284.49C524.027 281.903 518.827 278.396 511.667 281.85C520.64 289.263 533.773 290.263 540.4 302.463C521.947 301.69 504.493 299.65 491.733 317.73C507.88 316.743 522.627 310.13 538.973 320.17C513.84 330.97 503.72 350.01 502.253 376.063C519.146 372.303 532.96 360.596 550.36 363.97C544.333 396.33 521.293 430.41 563.693 456.876C549.36 488.85 537.64 522.183 529.96 556.623C522.707 589.036 508.2 616.77 484.64 640.09C468.893 655.69 457.747 672.876 470.507 695.37C459.2 713.33 449.293 730.423 435.56 744.996C415.12 766.676 402.893 792.41 398.067 821.823C392.92 853.21 390.933 884.823 393.973 916.383C402.64 1006.34 395.213 1096.17 392.92 1187.28C376.24 1200.58 360.614 1218.64 340.88 1227.34C318.32 1237.28 297.987 1249 279.84 1264.94C239.413 1300.52 204.533 1341.16 172.613 1384.38C166.467 1392.7 159.587 1398.78 149.187 1402.46C133.12 1408.14 117.307 1415.42 102.747 1424.22C78.9199 1438.61 71.9334 1457.46 78.7068 1484.3C81.0801 1493.7 80.2934 1502.09 76.3068 1510.77C68.1334 1528.52 69.3733 1546.1 78.0133 1563.46C79.7999 1567.01 83.8799 1570.2 80.8133 1575.49C55.1999 1580.38 28.0267 1578.74 0 1589.45C10.5733 1600.93 21.84 1600.34 32 1601.76C93.16 1610.21 154.8 1612.38 216.373 1614.6C438.8 1622.56 661.253 1621.78 883.72 1617.25C938.373 1616.16 993.013 1613.54 1047.61 1610.89C1081.87 1609.22 1116.16 1607.16 1150.03 1601.46C1158.72 1600.01 1169.19 1600.8 1175.92 1588.44C1132.91 1576.52 1089.85 1577.78 1046.88 1571.84Z" fill="currentColor"/>
</svg>
