<svg width="565" height="314" viewBox="0 0 565 314" fill="none" xmlns="http://www.w3.org/2000/svg">
<path fill-rule="evenodd" clip-rule="evenodd" d="M133.07 139C131.709 147.072 131 155.362 131 163.815C131 246.658 199.053 313.815 283 313.815C366.947 313.815 435 246.658 435 163.815C435 156.18 434.422 148.678 433.307 141.35L383.253 149.173C383.964 153.953 384.332 158.842 384.332 163.815C384.332 219.044 338.964 263.815 282.999 263.815C227.034 263.815 181.665 219.044 181.665 163.815C181.665 158.324 182.114 152.935 182.977 147.684L133.07 139Z" fill="#D3E604"/>
<path fill-rule="evenodd" clip-rule="evenodd" d="M180.032 155.382C179.792 158.163 179.67 160.975 179.67 163.815C179.67 219.044 225.934 263.815 283.005 263.815C340.075 263.815 386.34 219.044 386.34 163.815C386.34 160.975 386.217 158.163 385.978 155.383L334.505 159.741C334.617 161.085 334.674 162.444 334.674 163.815C334.674 191.43 311.542 213.815 283.007 213.815C254.471 213.815 231.339 191.43 231.339 163.815C231.339 162.444 231.396 161.085 231.508 159.741L180.032 155.382Z" fill="#DBEE04"/>
<path d="M8.2 40H41.4C52.7333 40 61 42.6667 66.2 48C71.4 53.2 74 61.2667 74 72.2V77.8C74 85 72.8 90.8667 70.4 95.4C68.1333 99.9333 64.6 103.2 59.8 105.2V105.6C70.7333 109.333 76.2 119.067 76.2 134.8V146.8C76.2 157.6 73.3333 165.867 67.6 171.6C62 177.2 53.7333 180 42.8 180H8.2V40ZM38.8 97C43.2 97 46.4667 95.8667 48.6 93.6C50.8667 91.3333 52 87.5333 52 82.2V74.4C52 69.3333 51.0667 65.6667 49.2 63.4C47.4667 61.1333 44.6667 60 40.8 60H30.2V97H38.8ZM42.8 160C46.6667 160 49.5333 159 51.4 157C53.2667 154.867 54.2 151.267 54.2 146.2V134C54.2 127.6 53.0667 123.2 50.8 120.8C48.6667 118.267 45.0667 117 40 117H30.2V160H42.8ZM106.059 40H135.859L158.659 180H136.659L132.659 152.2V152.6H107.659L103.659 180H83.2594L106.059 40ZM130.059 133.6L120.259 64.4H119.859L110.259 133.6H130.059ZM169.333 40H191.333V160H227.533V180H169.333V40ZM238.083 40H260.083V160H296.283V180H238.083V40ZM370.664 182C359.864 182 351.597 178.933 345.864 172.8C340.131 166.667 337.264 158 337.264 146.8V73.2C337.264 62 340.131 53.3333 345.864 47.2C351.597 41.0667 359.864 38 370.664 38C381.464 38 389.731 41.0667 395.464 47.2C401.197 53.3333 404.064 62 404.064 73.2V146.8C404.064 158 401.197 166.667 395.464 172.8C389.731 178.933 381.464 182 370.664 182ZM370.664 162C378.264 162 382.064 157.4 382.064 148.2V71.8C382.064 62.6 378.264 58 370.664 58C363.064 58 359.264 62.6 359.264 71.8V148.2C359.264 157.4 363.064 162 370.664 162ZM450.942 182C440.276 182 432.142 179 426.542 173C420.942 166.867 418.142 158.133 418.142 146.8V40H440.142V148.4C440.142 153.2 441.076 156.667 442.942 158.8C444.942 160.933 447.742 162 451.342 162C454.942 162 457.676 160.933 459.542 158.8C461.542 156.667 462.542 153.2 462.542 148.4V40H483.742V146.8C483.742 158.133 480.942 166.867 475.342 173C469.742 179 461.609 182 450.942 182ZM516.611 60H493.611V40H561.611V60H538.611V180H516.611V60Z" fill="#1F435E"/>
</svg>
