<svg width="554" height="144" viewBox="0 0 554 144" fill="none" xmlns="http://www.w3.org/2000/svg">
<path d="M0.2 1.99999H33.4C44.7333 1.99999 53 4.66666 58.2 9.99999C63.4 15.2 66 23.2667 66 34.2V39.8C66 47 64.8 52.8667 62.4 57.4C60.1333 61.9333 56.6 65.2 51.8 67.2V67.6C62.7333 71.3333 68.2 81.0667 68.2 96.8V108.8C68.2 119.6 65.3333 127.867 59.6 133.6C54 139.2 45.7333 142 34.8 142H0.2V1.99999ZM30.8 59C35.2 59 38.4667 57.8667 40.6 55.6C42.8667 53.3333 44 49.5333 44 44.2V36.4C44 31.3333 43.0667 27.6667 41.2 25.4C39.4667 23.1333 36.6667 22 32.8 22H22.2V59H30.8ZM34.8 122C38.6667 122 41.5333 121 43.4 119C45.2667 116.867 46.2 113.267 46.2 108.2V96C46.2 89.6 45.0667 85.2 42.8 82.8C40.6667 80.2667 37.0667 79 32 79H22.2V122H34.8ZM98.0594 1.99999H127.859L150.659 142H128.659L124.659 114.2V114.6H99.6594L95.6594 142H75.2594L98.0594 1.99999ZM122.059 95.6L112.259 26.4H111.859L102.259 95.6H122.059ZM161.333 1.99999H183.333V122H219.533V142H161.333V1.99999ZM230.083 1.99999H252.083V122H288.283V142H230.083V1.99999ZM362.664 144C351.864 144 343.597 140.933 337.864 134.8C332.131 128.667 329.264 120 329.264 108.8V35.2C329.264 24 332.131 15.3333 337.864 9.19999C343.597 3.06666 351.864 -7.62939e-06 362.664 -7.62939e-06C373.464 -7.62939e-06 381.731 3.06666 387.464 9.19999C393.197 15.3333 396.064 24 396.064 35.2V108.8C396.064 120 393.197 128.667 387.464 134.8C381.731 140.933 373.464 144 362.664 144ZM362.664 124C370.264 124 374.064 119.4 374.064 110.2V33.8C374.064 24.6 370.264 20 362.664 20C355.064 20 351.264 24.6 351.264 33.8V110.2C351.264 119.4 355.064 124 362.664 124ZM442.942 144C432.276 144 424.142 141 418.542 135C412.942 128.867 410.142 120.133 410.142 108.8V1.99999H432.142V110.4C432.142 115.2 433.076 118.667 434.942 120.8C436.942 122.933 439.742 124 443.342 124C446.942 124 449.676 122.933 451.542 120.8C453.542 118.667 454.542 115.2 454.542 110.4V1.99999H475.742V108.8C475.742 120.133 472.942 128.867 467.342 135C461.742 141 453.609 144 442.942 144ZM508.611 22H485.611V1.99999H553.611V22H530.611V142H508.611V22Z" fill="#1F435E"/>
</svg>
