<svg width="565" height="294" viewBox="0 0 565 294" fill="none" xmlns="http://www.w3.org/2000/svg">
<path fill-rule="evenodd" clip-rule="evenodd" d="M133.07 119C131.709 127.072 131 135.362 131 143.815C131 226.658 199.053 293.815 283 293.815C366.947 293.815 435 226.658 435 143.815C435 136.18 434.422 128.678 433.307 121.35L383.253 129.173C383.964 133.953 384.332 138.842 384.332 143.815C384.332 199.044 338.964 243.815 282.999 243.815C227.034 243.815 181.665 199.044 181.665 143.815C181.665 138.324 182.114 132.935 182.977 127.684L133.07 119Z" fill="#D3E604"/>
<path fill-rule="evenodd" clip-rule="evenodd" d="M180.032 135.382C179.792 138.163 179.67 140.975 179.67 143.815C179.67 199.044 225.934 243.815 283.005 243.815C340.075 243.815 386.34 199.044 386.34 143.815C386.34 140.975 386.217 138.163 385.978 135.383L334.505 139.741C334.617 141.085 334.674 142.444 334.674 143.815C334.674 171.43 311.542 193.815 283.007 193.815C254.471 193.815 231.339 171.43 231.339 143.815C231.339 142.444 231.396 141.085 231.508 139.741L180.032 135.382Z" fill="#DBEE04"/>
<mask id="path-3-outside-1_2101_914" maskUnits="userSpaceOnUse" x="6" y="16" width="558" height="148" fill="black">
<rect fill="white" x="6" y="16" width="558" height="148"/>
<path d="M8.2 20H41.4C52.7333 20 61 22.6667 66.2 28C71.4 33.2 74 41.2667 74 52.2V57.8C74 65 72.8 70.8667 70.4 75.4C68.1333 79.9333 64.6 83.2 59.8 85.2V85.6C70.7333 89.3333 76.2 99.0667 76.2 114.8V126.8C76.2 137.6 73.3333 145.867 67.6 151.6C62 157.2 53.7333 160 42.8 160H8.2V20ZM38.8 77C43.2 77 46.4667 75.8667 48.6 73.6C50.8667 71.3333 52 67.5333 52 62.2V54.4C52 49.3333 51.0667 45.6667 49.2 43.4C47.4667 41.1333 44.6667 40 40.8 40H30.2V77H38.8ZM42.8 140C46.6667 140 49.5333 139 51.4 137C53.2667 134.867 54.2 131.267 54.2 126.2V114C54.2 107.6 53.0667 103.2 50.8 100.8C48.6667 98.2667 45.0667 97 40 97H30.2V140H42.8ZM106.059 20H135.859L158.659 160H136.659L132.659 132.2V132.6H107.659L103.659 160H83.2594L106.059 20ZM130.059 113.6L120.259 44.4H119.859L110.259 113.6H130.059ZM169.333 20H191.333V140H227.533V160H169.333V20ZM238.083 20H260.083V140H296.283V160H238.083V20ZM370.664 162C359.864 162 351.597 158.933 345.864 152.8C340.131 146.667 337.264 138 337.264 126.8V53.2C337.264 42 340.131 33.3333 345.864 27.2C351.597 21.0667 359.864 18 370.664 18C381.464 18 389.731 21.0667 395.464 27.2C401.197 33.3333 404.064 42 404.064 53.2V126.8C404.064 138 401.197 146.667 395.464 152.8C389.731 158.933 381.464 162 370.664 162ZM370.664 142C378.264 142 382.064 137.4 382.064 128.2V51.8C382.064 42.6 378.264 38 370.664 38C363.064 38 359.264 42.6 359.264 51.8V128.2C359.264 137.4 363.064 142 370.664 142ZM450.942 162C440.276 162 432.142 159 426.542 153C420.942 146.867 418.142 138.133 418.142 126.8V20H440.142V128.4C440.142 133.2 441.076 136.667 442.942 138.8C444.942 140.933 447.742 142 451.342 142C454.942 142 457.676 140.933 459.542 138.8C461.542 136.667 462.542 133.2 462.542 128.4V20H483.742V126.8C483.742 138.133 480.942 146.867 475.342 153C469.742 159 461.609 162 450.942 162ZM516.611 40H493.611V20H561.611V40H538.611V160H516.611V40Z"/>
</mask>
<path d="M8.2 20H41.4C52.7333 20 61 22.6667 66.2 28C71.4 33.2 74 41.2667 74 52.2V57.8C74 65 72.8 70.8667 70.4 75.4C68.1333 79.9333 64.6 83.2 59.8 85.2V85.6C70.7333 89.3333 76.2 99.0667 76.2 114.8V126.8C76.2 137.6 73.3333 145.867 67.6 151.6C62 157.2 53.7333 160 42.8 160H8.2V20ZM38.8 77C43.2 77 46.4667 75.8667 48.6 73.6C50.8667 71.3333 52 67.5333 52 62.2V54.4C52 49.3333 51.0667 45.6667 49.2 43.4C47.4667 41.1333 44.6667 40 40.8 40H30.2V77H38.8ZM42.8 140C46.6667 140 49.5333 139 51.4 137C53.2667 134.867 54.2 131.267 54.2 126.2V114C54.2 107.6 53.0667 103.2 50.8 100.8C48.6667 98.2667 45.0667 97 40 97H30.2V140H42.8ZM106.059 20H135.859L158.659 160H136.659L132.659 132.2V132.6H107.659L103.659 160H83.2594L106.059 20ZM130.059 113.6L120.259 44.4H119.859L110.259 113.6H130.059ZM169.333 20H191.333V140H227.533V160H169.333V20ZM238.083 20H260.083V140H296.283V160H238.083V20ZM370.664 162C359.864 162 351.597 158.933 345.864 152.8C340.131 146.667 337.264 138 337.264 126.8V53.2C337.264 42 340.131 33.3333 345.864 27.2C351.597 21.0667 359.864 18 370.664 18C381.464 18 389.731 21.0667 395.464 27.2C401.197 33.3333 404.064 42 404.064 53.2V126.8C404.064 138 401.197 146.667 395.464 152.8C389.731 158.933 381.464 162 370.664 162ZM370.664 142C378.264 142 382.064 137.4 382.064 128.2V51.8C382.064 42.6 378.264 38 370.664 38C363.064 38 359.264 42.6 359.264 51.8V128.2C359.264 137.4 363.064 142 370.664 142ZM450.942 162C440.276 162 432.142 159 426.542 153C420.942 146.867 418.142 138.133 418.142 126.8V20H440.142V128.4C440.142 133.2 441.076 136.667 442.942 138.8C444.942 140.933 447.742 142 451.342 142C454.942 142 457.676 140.933 459.542 138.8C461.542 136.667 462.542 133.2 462.542 128.4V20H483.742V126.8C483.742 138.133 480.942 146.867 475.342 153C469.742 159 461.609 162 450.942 162ZM516.611 40H493.611V20H561.611V40H538.611V160H516.611V40Z" fill="white"/>
<path d="M8.2 20V18H6.2V20H8.2ZM66.2 28L64.768 29.3962L64.7768 29.4053L64.7858 29.4142L66.2 28ZM70.4 75.4L68.6324 74.4642L68.6216 74.4848L68.6112 74.5056L70.4 75.4ZM59.8 85.2L59.0308 83.3538L57.8 83.8667V85.2H59.8ZM59.8 85.6H57.8V87.0305L59.1537 87.4927L59.8 85.6ZM67.6 151.6L69.0142 153.014L69.0142 153.014L67.6 151.6ZM8.2 160H6.2V162H8.2V160ZM48.6 73.6L47.1858 72.1858L47.1644 72.2072L47.1436 72.2293L48.6 73.6ZM49.2 43.4L47.6113 44.6149L47.6332 44.6436L47.6561 44.6714L49.2 43.4ZM30.2 40V38H28.2V40H30.2ZM30.2 77H28.2V79H30.2V77ZM51.4 137L52.8621 138.365L52.884 138.341L52.9052 138.317L51.4 137ZM50.8 100.8L49.2702 102.088L49.3069 102.132L49.346 102.173L50.8 100.8ZM30.2 97V95H28.2V97H30.2ZM30.2 140H28.2V142H30.2V140ZM8.2 22H41.4V18H8.2V22ZM41.4 22C52.4715 22 60.1018 24.6104 64.768 29.3962L67.632 26.6038C61.8982 20.7229 52.9952 18 41.4 18V22ZM64.7858 29.4142C69.4619 34.0903 72 41.5411 72 52.2H76C76 40.9923 73.3381 32.3097 67.6142 26.5858L64.7858 29.4142ZM72 52.2V57.8H76V52.2H72ZM72 57.8C72 64.7979 70.8307 70.3119 68.6324 74.4642L72.1676 76.3358C74.7693 71.4214 76 65.2021 76 57.8H72ZM68.6112 74.5056C66.5652 78.5975 63.4003 81.5332 59.0308 83.3538L60.5692 87.0462C65.7997 84.8668 69.7015 81.2691 72.1889 76.2944L68.6112 74.5056ZM57.8 85.2V85.6H61.8V85.2H57.8ZM59.1537 87.4927C64.1725 89.2064 67.873 92.258 70.3562 96.6794C72.8667 101.149 74.2 107.144 74.2 114.8H78.2C78.2 106.723 76.8 99.984 73.8438 94.7206C70.8604 89.4087 66.3608 85.7269 60.4463 83.7073L59.1537 87.4927ZM74.2 114.8V126.8H78.2V114.8H74.2ZM74.2 126.8C74.2 137.252 71.4324 144.939 66.1858 150.186L69.0142 153.014C75.2342 146.794 78.2 137.948 78.2 126.8H74.2ZM66.1858 150.186C61.0849 155.287 53.4088 158 42.8 158V162C54.0578 162 62.9151 159.113 69.0142 153.014L66.1858 150.186ZM42.8 158H8.2V162H42.8V158ZM10.2 160V20H6.2V160H10.2ZM38.8 79C43.5186 79 47.4107 77.7818 50.0564 74.9707L47.1436 72.2293C45.5226 73.9515 42.8814 75 38.8 75V79ZM50.0142 75.0142C52.8395 72.189 54 67.7306 54 62.2H50C50 67.3361 48.8939 70.4777 47.1858 72.1858L50.0142 75.0142ZM54 62.2V54.4H50V62.2H54ZM54 54.4C54 49.1745 53.0539 44.9336 50.7439 42.1286L47.6561 44.6714C49.0794 46.3997 50 49.4921 50 54.4H54ZM50.7887 42.1851C48.5528 39.2612 45.052 38 40.8 38V42C44.2814 42 46.3805 43.0054 47.6113 44.6149L50.7887 42.1851ZM40.8 38H30.2V42H40.8V38ZM28.2 40V77H32.2V40H28.2ZM30.2 79H38.8V75H30.2V79ZM42.8 142C46.9868 142 50.4825 140.914 52.8621 138.365L49.9379 135.635C48.5841 137.086 46.3466 138 42.8 138V142ZM52.9052 138.317C55.2609 135.625 56.2 131.408 56.2 126.2H52.2C52.2 131.125 51.2724 134.109 49.8948 135.683L52.9052 138.317ZM56.2 126.2V114H52.2V126.2H56.2ZM56.2 114C56.2 107.508 55.0801 102.419 52.254 99.4268L49.346 102.173C51.0533 103.981 52.2 107.692 52.2 114H56.2ZM52.3298 99.5117C49.652 96.3318 45.3416 95 40 95V99C44.7917 99 47.6814 100.202 49.2702 102.088L52.3298 99.5117ZM40 95H30.2V99H40V95ZM28.2 97V140H32.2V97H28.2ZM30.2 142H42.8V138H30.2V142ZM106.059 20V18H104.359L104.085 19.6785L106.059 20ZM135.859 20L137.833 19.6785L137.56 18H135.859V20ZM158.659 160V162H161.011L160.633 159.679L158.659 160ZM136.659 160L134.68 160.285L134.927 162H136.659V160ZM132.659 132.2L134.639 131.915L130.659 132.2H132.659ZM132.659 132.6V134.6H134.659V132.6H132.659ZM107.659 132.6V130.6H105.93L105.68 132.311L107.659 132.6ZM103.659 160V162H105.389L105.638 160.289L103.659 160ZM83.2594 160L81.2854 159.679L80.9073 162H83.2594V160ZM130.059 113.6V115.6H132.363L132.04 113.32L130.059 113.6ZM120.259 44.4L122.24 44.1196L121.996 42.4H120.259V44.4ZM119.859 44.4V42.4H118.118L117.878 44.1252L119.859 44.4ZM110.259 113.6L108.278 113.325L107.963 115.6H110.259V113.6ZM106.059 22H135.859V18H106.059V22ZM133.885 20.3215L156.685 160.321L160.633 159.679L137.833 19.6785L133.885 20.3215ZM158.659 158H136.659V162H158.659V158ZM138.639 159.715L134.639 131.915L130.68 132.485L134.68 160.285L138.639 159.715ZM130.659 132.2V132.6H134.659V132.2H130.659ZM132.659 130.6H107.659V134.6H132.659V130.6ZM105.68 132.311L101.68 159.711L105.638 160.289L109.638 132.889L105.68 132.311ZM103.659 158H83.2594V162H103.659V158ZM85.2334 160.321L108.033 20.3215L104.085 19.6785L81.2854 159.679L85.2334 160.321ZM132.04 113.32L122.24 44.1196L118.279 44.6804L128.079 113.88L132.04 113.32ZM120.259 42.4H119.859V46.4H120.259V42.4ZM117.878 44.1252L108.278 113.325L112.24 113.875L121.84 44.6748L117.878 44.1252ZM110.259 115.6H130.059V111.6H110.259V115.6ZM169.333 20V18H167.333V20H169.333ZM191.333 20H193.333V18H191.333V20ZM191.333 140H189.333V142H191.333V140ZM227.533 140H229.533V138H227.533V140ZM227.533 160V162H229.533V160H227.533ZM169.333 160H167.333V162H169.333V160ZM169.333 22H191.333V18H169.333V22ZM189.333 20V140H193.333V20H189.333ZM191.333 142H227.533V138H191.333V142ZM225.533 140V160H229.533V140H225.533ZM227.533 158H169.333V162H227.533V158ZM171.333 160V20H167.333V160H171.333ZM238.083 20V18H236.083V20H238.083ZM260.083 20H262.083V18H260.083V20ZM260.083 140H258.083V142H260.083V140ZM296.283 140H298.283V138H296.283V140ZM296.283 160V162H298.283V160H296.283ZM238.083 160H236.083V162H238.083V160ZM238.083 22H260.083V18H238.083V22ZM258.083 20V140H262.083V20H258.083ZM260.083 142H296.283V138H260.083V142ZM294.283 140V160H298.283V140H294.283ZM296.283 158H238.083V162H296.283V158ZM240.083 160V20H236.083V160H240.083ZM345.864 152.8L347.325 151.434L347.325 151.434L345.864 152.8ZM345.864 27.2L347.325 28.5658L347.325 28.5658L345.864 27.2ZM395.464 27.2L394.003 28.5658L394.003 28.5658L395.464 27.2ZM395.464 152.8L394.003 151.434L394.003 151.434L395.464 152.8ZM370.664 160C360.25 160 352.579 157.055 347.325 151.434L344.403 154.166C350.616 160.812 359.478 164 370.664 164V160ZM347.325 151.434C342.041 145.781 339.264 137.666 339.264 126.8H335.264C335.264 138.334 338.221 147.552 344.403 154.166L347.325 151.434ZM339.264 126.8V53.2H335.264V126.8H339.264ZM339.264 53.2C339.264 42.3339 342.041 34.219 347.325 28.5658L344.403 25.8342C338.221 32.4477 335.264 41.6661 335.264 53.2H339.264ZM347.325 28.5658C352.579 22.9451 360.25 20 370.664 20V16C359.478 16 350.616 19.1882 344.403 25.8342L347.325 28.5658ZM370.664 20C381.078 20 388.749 22.9451 394.003 28.5658L396.925 25.8342C390.713 19.1882 381.85 16 370.664 16V20ZM394.003 28.5658C399.288 34.219 402.064 42.3339 402.064 53.2H406.064C406.064 41.6661 403.107 32.4477 396.925 25.8342L394.003 28.5658ZM402.064 53.2V126.8H406.064V53.2H402.064ZM402.064 126.8C402.064 137.666 399.288 145.781 394.003 151.434L396.925 154.166C403.107 147.552 406.064 138.334 406.064 126.8H402.064ZM394.003 151.434C388.749 157.055 381.078 160 370.664 160V164C381.85 164 390.713 160.812 396.925 154.166L394.003 151.434ZM370.664 144C374.884 144 378.376 142.705 380.756 139.824C383.075 137.016 384.064 133.025 384.064 128.2H380.064C380.064 132.575 379.153 135.484 377.672 137.276C376.252 138.995 374.044 140 370.664 140V144ZM384.064 128.2V51.8H380.064V128.2H384.064ZM384.064 51.8C384.064 46.9748 383.075 42.9839 380.756 40.1762C378.376 37.2954 374.884 36 370.664 36V40C374.044 40 376.252 41.0046 377.672 42.7238C379.153 44.5161 380.064 47.4252 380.064 51.8H384.064ZM370.664 36C366.444 36 362.952 37.2954 360.572 40.1762C358.253 42.9839 357.264 46.9748 357.264 51.8H361.264C361.264 47.4252 362.175 44.5161 363.656 42.7238C365.076 41.0046 367.284 40 370.664 40V36ZM357.264 51.8V128.2H361.264V51.8H357.264ZM357.264 128.2C357.264 133.025 358.253 137.016 360.572 139.824C362.952 142.705 366.444 144 370.664 144V140C367.284 140 365.076 138.995 363.656 137.276C362.175 135.484 361.264 132.575 361.264 128.2H357.264ZM426.542 153L425.065 154.349L425.073 154.357L425.08 154.365L426.542 153ZM418.142 20V18H416.142V20H418.142ZM440.142 20H442.142V18H440.142V20ZM442.942 138.8L441.437 140.117L441.46 140.143L441.483 140.168L442.942 138.8ZM459.542 138.8L458.083 137.432L458.06 137.457L458.037 137.483L459.542 138.8ZM462.542 20V18H460.542V20H462.542ZM483.742 20H485.742V18H483.742V20ZM475.342 153L476.804 154.365L476.812 154.357L476.819 154.349L475.342 153ZM450.942 160C440.655 160 433.121 157.118 428.004 151.635L425.08 154.365C431.163 160.882 439.896 164 450.942 164V160ZM428.019 151.651C422.862 146.003 420.142 137.818 420.142 126.8H416.142C416.142 138.448 419.022 147.73 425.065 154.349L428.019 151.651ZM420.142 126.8V20H416.142V126.8H420.142ZM418.142 22H440.142V18H418.142V22ZM438.142 20V128.4H442.142V20H438.142ZM438.142 128.4C438.142 133.375 439.094 137.439 441.437 140.117L444.447 137.483C443.057 135.894 442.142 133.025 442.142 128.4H438.142ZM441.483 140.168C443.946 142.795 447.326 144 451.342 144V140C448.158 140 445.939 139.072 444.401 137.432L441.483 140.168ZM451.342 144C455.352 144 458.703 142.796 461.047 140.117L458.037 137.483C456.648 139.071 454.533 140 451.342 140V144ZM461.001 140.168C463.514 137.488 464.542 133.401 464.542 128.4H460.542C460.542 132.999 459.571 135.845 458.083 137.432L461.001 140.168ZM464.542 128.4V20H460.542V128.4H464.542ZM462.542 22H483.742V18H462.542V22ZM481.742 20V126.8H485.742V20H481.742ZM481.742 126.8C481.742 137.818 479.022 146.003 473.865 151.651L476.819 154.349C482.862 147.73 485.742 138.448 485.742 126.8H481.742ZM473.88 151.635C468.763 157.118 461.23 160 450.942 160V164C461.988 164 470.721 160.882 476.804 154.365L473.88 151.635ZM516.611 40H518.611V38H516.611V40ZM493.611 40H491.611V42H493.611V40ZM493.611 20V18H491.611V20H493.611ZM561.611 20H563.611V18H561.611V20ZM561.611 40V42H563.611V40H561.611ZM538.611 40V38H536.611V40H538.611ZM538.611 160V162H540.611V160H538.611ZM516.611 160H514.611V162H516.611V160ZM516.611 38H493.611V42H516.611V38ZM495.611 40V20H491.611V40H495.611ZM493.611 22H561.611V18H493.611V22ZM559.611 20V40H563.611V20H559.611ZM561.611 38H538.611V42H561.611V38ZM536.611 40V160H540.611V40H536.611ZM538.611 158H516.611V162H538.611V158ZM518.611 160V40H514.611V160H518.611Z" fill="#21435C" mask="url(#path-3-outside-1_2101_914)"/>
</svg>
