<svg width="184" height="183" viewBox="0 0 184 183" fill="none" xmlns="http://www.w3.org/2000/svg">
<ellipse cx="91.9097" cy="90.7" rx="90.7007" ry="90.7004" transform="rotate(-180 91.9097 90.7)" fill="#1F435E"/>
<ellipse cx="91.9099" cy="90.7001" rx="60.4671" ry="60.4669" transform="rotate(-180 91.9099 90.7001)" fill="#3E6B89"/>
<path fill-rule="evenodd" clip-rule="evenodd" d="M1.25176 76.9074C0.428628 81.7875 0.000313552 86.7994 0.000313105 91.91C0.000308726 142.002 41.1498 182.61 91.9103 182.61C142.671 182.61 183.82 142.002 183.82 91.91C183.82 87.2936 183.471 82.7577 182.797 78.3268L152.53 83.0574C152.96 85.9471 153.182 88.9033 153.182 91.9107C153.182 125.306 125.749 152.378 91.9087 152.378C58.0684 152.378 30.6354 125.306 30.6354 91.9107C30.6354 88.5906 30.9065 85.333 31.4281 82.1583L1.25176 76.9074Z" fill="#D3E604"/>
<path fill-rule="evenodd" clip-rule="evenodd" d="M29.6482 86.8109C29.5031 88.4923 29.4291 90.1933 29.4291 91.911C29.4291 125.306 57.404 152.378 91.9128 152.378C126.422 152.378 154.396 125.306 154.396 91.911C154.396 90.1933 154.322 88.4924 154.177 86.811L123.055 89.4459C123.122 90.2583 123.157 91.0797 123.157 91.9089C123.157 108.606 109.17 122.142 91.9151 122.142C74.6608 122.142 60.6733 108.606 60.6733 91.9089C60.6733 91.0798 60.7078 90.2585 60.7754 89.4463L29.6482 86.8109Z" fill="#DBEE04"/>
<ellipse cx="91.911" cy="90.7011" rx="30.2336" ry="30.2335" transform="rotate(-180 91.911 90.7011)" fill="#EAFF00"/>
</svg>
