<svg width="976" height="1732" viewBox="0 0 976 1732" fill="none" xmlns="http://www.w3.org/2000/svg">
<path fill-rule="evenodd" clip-rule="evenodd" d="M0.117432 1591.59C0.759852 1591.82 1.11743 1591.92 1.11743 1591.92C-0.575902 1610.15 18.6174 1626.71 18.6174 1626.71C32.8312 1633.42 45.7733 1648.72 56.7151 1661.65C65.4033 1671.92 72.8303 1680.69 78.6312 1682.5C98.4026 1688.67 110.512 1695.08 120.368 1700.29C138.9 1710.1 149.463 1715.68 188.005 1707.56C198.325 1705.39 208.271 1700.71 210.178 1688.28C212.125 1675.67 204.965 1667.14 195.445 1660.87C187.202 1655.47 178.626 1650.57 169.843 1645.56C165.938 1643.33 161.993 1641.08 158.018 1638.75C157.817 1635.81 157.602 1632.81 157.398 1629.97C157.318 1628.86 157.24 1627.76 157.165 1626.71C141.031 1615.14 125.325 1603.87 108.645 1591.92C122.178 1579.57 131.833 1585.4 142.378 1591.76C146.99 1594.55 151.773 1597.44 157.125 1598.95C139.258 1582.56 124.231 1571.4 103.431 1586.88C99.4313 1542.12 233.084 1422.56 312.924 1375.95C323.604 1383.54 335.231 1381.36 346.818 1376.76C402.058 1354.84 437.845 1314.44 455.951 1258.64C465.145 1230.29 473.528 1201.69 481.912 1173.07C486.817 1156.33 491.722 1139.59 496.791 1122.9C497.192 1121.59 497.475 1120.19 497.763 1118.78C498.756 1113.89 499.807 1108.72 505.991 1105.62C518.801 1117.7 526.243 1133.14 533.628 1148.45C535.244 1151.81 536.858 1155.15 538.525 1158.46C542.343 1166.04 546.705 1173.41 551.069 1180.78C562.158 1199.52 573.263 1218.29 575.511 1240.58C578.245 1267.72 586.151 1289.22 616.165 1293.43C626.605 1338.18 645.311 1377.4 673.551 1410.99C690.031 1430.62 703.018 1451.79 714.858 1474.11C727.769 1498.45 740.789 1522.73 752.728 1544.99C758.605 1555.95 764.22 1566.43 769.431 1576.18C766.339 1604.01 763.625 1628.4 761.065 1651.4C759.96 1661.33 758.883 1671 757.818 1680.58C762.729 1683.12 765.166 1681.22 767.58 1679.34C769.485 1677.86 771.376 1676.39 774.458 1677.12C779.991 1680.66 786.858 1685.04 792.498 1688.66C794.258 1696.43 795.578 1702.26 797.311 1709.82C805.151 1708.9 807.651 1714.15 810.04 1719.17C811.105 1721.41 812.148 1723.6 813.631 1725.18C817.207 1725.64 819.023 1723.97 821.053 1722.11C823.392 1719.96 826.015 1717.56 831.938 1717.84C837.604 1718.19 848.538 1718.86 855.125 1719.24C860.594 1720.58 862.382 1724.03 863.852 1726.86C865.07 1729.21 866.07 1731.14 868.764 1731.1C873.791 1730.29 874.918 1727.16 876.049 1724.02C876.8 1721.94 877.552 1719.85 879.444 1718.43C907.418 1697.48 909.885 1684.83 893.618 1653.59C891.666 1649.84 889.666 1646.12 887.664 1642.39C878.782 1625.84 869.862 1609.22 864.911 1590.36C869.111 1587.98 872.644 1585.96 876.338 1583.86C874.585 1581.17 872.123 1581.27 869.681 1581.37C867.033 1581.48 864.409 1581.58 862.738 1578.14C864.24 1569.37 871.427 1564.66 878.812 1559.81C887.806 1553.91 897.094 1547.81 896.764 1533.98C882.375 1531.02 873.621 1538.5 864.406 1546.36C860.018 1550.11 855.526 1553.95 850.271 1556.79C815.591 1456.74 780.551 1358.15 741.498 1262.52C754.138 1238.94 752.125 1228.54 732.271 1208.95C731.151 1207.84 729.967 1206.79 728.786 1205.73C723.865 1201.34 718.979 1196.98 718.818 1189.24C718.431 1171.16 709.978 1156.71 698.018 1144.75C697.131 1134.62 695.105 1124.99 693.107 1115.5C691.981 1110.15 690.863 1104.84 689.965 1099.51C671.098 988.042 645.538 878.496 582.525 781.789C570.485 763.309 562.071 743.229 558.551 720.469C562.778 717.309 566.711 714.376 569.751 712.109L569.756 711.531C569.875 697.256 569.978 684.9 564.058 674.322C560.102 671.446 555.578 671.29 551.162 671.137C546.037 670.96 541.059 670.788 537.285 666.376C576.365 623.496 575.951 615.682 531.951 577.669C526.879 544.866 516.242 513.043 505.048 479.558C501.705 469.558 498.313 459.409 495.005 449.042C508.726 449.939 522.047 449.127 535.147 448.328C556.531 447.024 577.326 445.757 598.311 452.016C627.258 460.656 657.071 466.069 687.151 469.602C705.826 471.799 724.519 473.905 742.803 475.965C751.594 476.955 760.29 477.935 768.844 478.909C786.924 510.362 780.791 538.469 766.191 565.989C764.225 566.904 762.163 566.394 760.037 565.868C756.93 565.1 753.688 564.298 750.418 567.869C752.396 569.074 754.303 570.236 756.148 571.361C759.388 573.336 762.437 575.195 765.351 576.962C764.431 614.869 769.831 625.562 793.391 633.376C803.607 630.419 813.453 626.262 823.281 622.113C839.557 615.243 855.78 608.394 873.538 607.056C876.669 609.216 878.585 612.304 880.48 615.359C883.031 619.471 885.545 623.523 890.938 625.176C890.938 621.299 889.424 617.916 887.908 614.528C885.977 610.213 884.044 605.891 885.231 600.536C915.111 584.895 934.404 558.709 949.365 528.629C952.003 528.839 953.172 530.783 954.348 532.741C955.787 535.135 957.237 537.548 961.404 536.829C956.164 514.282 950.951 491.816 945.724 469.282C952.883 467.591 958.506 470.007 963.909 472.328C967.623 473.924 971.232 475.475 975.165 475.616C975.182 475.667 975.201 475.719 975.22 475.771C975.245 475.839 975.269 475.907 975.284 475.976L975.631 475.642H975.628C975.469 475.642 975.323 475.642 975.165 475.616C973.159 469.284 967.726 467.357 962.444 465.484C961.686 465.216 960.932 464.948 960.191 464.669C958.361 463.983 956.481 463.431 954.608 462.88C948.686 461.139 942.825 459.417 938.804 453.562C931.04 442.272 923.095 431.097 915.153 419.926C911.653 415.003 908.154 410.08 904.671 405.149C903.947 402.712 905.26 400.78 906.576 398.842C908.242 396.39 909.914 393.929 907.471 390.429C899.629 393.513 892.031 391.752 884.253 389.948C876.599 388.173 868.77 386.358 860.365 389.082C846.174 365.484 822.738 358.044 798.525 350.358L797.658 350.082L794.212 348.988C707.357 321.405 620.847 293.931 528.311 290.549C489.604 289.136 453.831 271.829 415.378 252.002C442.549 244.449 448.706 225.348 454.877 206.203C457.715 197.399 460.555 188.586 465.445 180.882C450.756 166.44 432.785 163.399 415.269 160.435C407.203 159.07 399.233 157.721 391.724 155.282C387.791 150.122 385.965 145.229 387.911 138.816C395.515 135.667 403.502 135.712 411.487 135.758C416.551 135.787 421.615 135.816 426.578 135.029C430.043 134.479 433.636 134.367 437.28 134.253C447.069 133.948 457.229 133.631 466.285 124.789C457.311 114.903 446.045 112.626 434.586 110.31C426.447 108.665 418.212 107 410.631 102.576C402.671 70.0689 392.778 36.1091 358.818 17.0158C325.938 -1.47757 290.498 -2.57103 254.618 2.8423C225.244 7.26897 201.431 23.0956 181.431 44.4956C152.445 75.509 152.164 113.829 156.484 153.842C130.911 159.896 119.138 177.096 114.671 200.549C111.34 218.024 118.085 232.936 125.289 248.864C127.946 254.739 130.665 260.752 132.965 267.082C69.1913 296.789 80.0979 345.202 103.058 395.069C98.9157 399.463 94.4556 403.309 90.1046 407.062C80.8559 415.038 72.0999 422.589 67.9379 434.069C62.1112 450.069 60.3113 466.402 63.4979 483.562C100.711 470.896 107.605 456.562 106.245 395.549C152.005 360.722 152.378 314.056 135.218 263.496C157.711 249.429 178.685 235.162 176.831 203.602C181.604 206.176 185.598 208.328 189.24 210.291C193.371 212.517 197.05 214.499 200.898 216.576C200.832 218.698 200.912 220.807 200.992 222.912C201.252 229.721 201.51 236.494 196.805 243.562C191.936 244.682 186.792 245.878 181.772 247.045C178.365 247.837 175.014 248.616 171.845 249.349C164.578 255.949 163.951 263.749 163.471 271.429C161.378 305.429 159.365 339.429 157.458 373.456C156.511 390.322 160.911 406.309 167.418 421.509C184.498 461.362 201.685 501.202 219.845 540.549C220.191 541.298 220.538 542.049 220.884 542.8C229.216 560.853 237.75 579.344 257.258 587.549C257.095 592.121 256.875 596.696 256.657 601.261C254.622 643.708 252.631 685.239 296.271 714.096C298.43 720.551 300.945 728.042 303.472 735.566C304.113 737.475 304.754 739.386 305.391 741.282C303.309 746.158 301.218 750.993 299.135 755.808C294.388 766.782 289.688 777.647 285.258 788.629C266.204 835.776 268.018 880.922 293.724 926.176C306.418 948.522 317.578 972.069 319.498 999.856C320.882 1019.87 318.835 1039.73 316.791 1059.55C314.268 1084.01 311.75 1108.44 315.698 1133.07C318.031 1147.64 316.351 1161.24 307.311 1173.8C301.178 1182.34 301.578 1192.48 304.258 1202.42C304.564 1203.55 304.909 1204.68 305.256 1205.81C306.995 1211.5 308.779 1217.34 305.911 1224.63C302.162 1227.29 298.035 1229.66 293.873 1232.04C281.602 1239.08 269.023 1246.29 264.911 1261.76C228.418 1276.64 200.391 1298.68 179.365 1330.95C157.998 1363.69 132.762 1393.65 107.559 1423.56C103.697 1428.15 99.8369 1432.73 95.9912 1437.32C95.4713 1437.94 94.9565 1438.57 94.4393 1439.2C90.4471 1444.08 86.3158 1449.13 78.6312 1451.87C68.163 1447.39 44.3107 1480.04 23.0274 1509.17C14.6734 1520.61 6.71511 1531.5 0.117432 1539.39V1591.59ZM698.484 394.269C726.991 383.562 777.551 394.069 792.564 415.776C758.724 413.069 728.885 406.909 698.484 394.269ZM895.244 1536.42C885.604 1552.92 873.738 1558.66 856.578 1566.74C865.685 1548.74 875.044 1539.94 895.244 1536.42ZM379.002 224.154C376.209 230.141 373.513 235.921 370.578 242.216C394.858 248.096 416.818 251.709 439.031 232.176C420.738 219.469 402.738 215.722 383.911 213.629C382.203 217.292 380.587 220.756 379.002 224.154ZM454.365 191.376C432.351 188.909 412.405 188.029 392.818 189.149C392.576 189.675 392.335 190.191 392.097 190.699C389.539 196.179 387.413 200.732 388.938 207.016C390.438 207.441 391.943 207.865 393.451 208.29C409.279 212.747 425.505 217.316 440.831 225.509C447.533 216.678 450.077 207.22 452.811 197.053C453.314 195.184 453.822 193.292 454.365 191.376ZM394.76 162.584C393.435 162.436 392.108 162.287 390.778 162.136L390.74 162.5C389.985 169.79 389.439 175.058 393.938 182.429H460.525C437.508 167.365 416.397 165.004 394.76 162.584Z" fill="currentColor"/>
</svg>
