<svg width="731" height="1724" viewBox="0 0 731 1724" fill="none" xmlns="http://www.w3.org/2000/svg">
<path d="M572.261 972.414C572.524 953.161 582.757 944.747 590.507 935.187C591.136 933.681 591.749 932.174 592.553 930.267C595.492 933.054 594.792 934.881 592.011 936.481C589.684 948.641 584.664 959.321 572.261 972.414ZM559.649 854.427C549.677 802.814 535.105 752.361 516.545 703.121C512.592 692.667 515.548 682.094 516.179 671.774C545.881 653.414 545.881 653.414 532.429 621.227C522.563 597.627 522.685 565.947 533.776 517.974C536.471 525.107 538.184 527.814 538.5 530.681C548.103 616.774 579.504 696.681 607.983 777.427C611.096 786.241 613.039 795.494 615.645 804.507C624.567 835.227 622.205 865.054 605.271 892.214C594.373 909.747 592.413 932.774 572.699 945.307C568.431 914.867 565.439 884.387 559.649 854.427ZM260.532 242.881C210.185 246.387 169.339 266.374 139.093 308.027C123.069 330.107 104.299 350.187 84.0766 374.361C82.5198 331.107 85.6864 295.001 120.953 270.601C130.417 264.054 133.671 252.334 141.664 239.574H277.325C274.404 244.441 266.707 242.467 260.532 242.881ZM704.931 1657.47C696.131 1649.69 689.501 1639.44 682.015 1630.24C677.168 1624.28 677.799 1619.09 685.811 1615.08C679.355 1611.57 668.999 1613.23 670.591 1602.32C677.379 1604.21 684.165 1606.08 691.163 1608.03C691.163 1606.63 691.391 1605.84 691.111 1605.6C689.799 1604.39 688.504 1602.87 686.912 1602.31C649.861 1589.35 636.217 1562.89 636.357 1524.33C636.619 1453.32 629.832 1382.76 611.779 1313.71C610.327 1308.12 609.54 1302.72 612.356 1297.25C621.628 1279.24 618.444 1263.32 604.624 1251.08C599.359 1192.57 576.145 1138.11 582.6 1078.75C593.219 1081.03 603.504 1083.56 613.931 1085.41C662.719 1094.09 678.568 1086.83 702.639 1044.77C738.063 982.867 741.089 920.561 705.228 857.547C698.073 844.987 691.653 832.214 674.247 827.681C660.392 714.281 630.496 604.134 606.548 492.707C625.581 485.814 640.905 479.027 652.66 464.267C635.989 415.947 616.729 368.507 596.403 321.321C584.315 293.227 566.471 277.667 536.173 271.814C503.443 265.507 471.255 255.441 439.12 231.907C468.247 230.481 492.369 229.587 516.457 228.081C555.905 225.641 595.335 223.014 634.729 219.987C653.483 218.547 665.693 209.667 664.293 188.867C662.947 168.787 651.768 159.201 630.933 160.041C620.911 160.441 610.904 161.414 600.915 162.347C564.844 165.667 528.791 169.094 488.644 172.867C508.113 151.961 472.06 142.227 484.672 123.201C508.901 117.534 538.027 123.361 558.459 97.9075C535.857 87.7875 512.889 90.6941 492.107 82.9741C489.116 76.6008 486.195 70.4007 483.308 64.1874C466.183 27.4541 443.091 -1.87929 397.504 0.0940481C356.849 1.84071 315.932 8.48074 297.389 50.2541C279.144 91.3207 286.159 131.414 319.361 164.361C329.368 174.294 328.58 185.281 324.452 199.614C265.867 210.294 205.829 212.774 148.977 218.987C111.419 182.134 74.1755 209.054 35.7427 213.107C30.5823 212.414 25.8594 203.481 15.8355 207.254C3.87035 219.107 7.9115 233.841 11.9349 248.361C13.4568 253.841 16.4828 258.694 25.212 260.907C29.1479 263.934 30.1099 251.881 37.5974 255.934C28.4834 289.014 19.4042 322.254 10.1329 355.414C0.231815 390.947 -4.84162 426.494 6.37192 462.867C14.9787 490.761 27.1364 497.681 55.4927 489.161C75.1027 483.267 91.4418 471.627 107.343 459.281C116.177 452.401 124.748 445.174 132.778 438.654C145.128 441.387 153.297 451.654 168.063 449.747C175.741 443.067 184.943 435.067 195.981 425.481C207.981 481.227 220.192 534.534 215.153 589.441C213.632 606.014 212.005 620.307 225.317 631.761C224.059 635.067 223.445 637.534 222.239 639.707C218.303 646.827 214.699 654.241 209.976 660.841C172.225 713.614 161.117 774.161 158.843 837.081C156.324 906.894 166.051 976.027 171.631 1045.39C175.181 1089.52 185.065 1133.59 174.657 1179.48C170.547 1182.64 165.596 1186.44 164.756 1187.07C159.088 1198.97 166.977 1206.45 164.336 1211.67C146.177 1247.49 160.715 1285.69 155.292 1322.75C145.443 1390 154.243 1457.93 160.68 1525.43C161.921 1538.47 168.307 1553.31 161.992 1564.33C144.813 1594.31 138.359 1626.97 129.332 1659.56C122.422 1684.52 125.308 1700.92 146.405 1715.91C160.488 1701.27 173.415 1707.53 184.453 1719.04C192.168 1717.44 189.333 1707.53 197.625 1707.37C203.661 1703.13 206.075 1717.01 215.609 1709.69C216.659 1702.96 220.437 1694.72 227.207 1688.44C225.737 1667.37 228.396 1647.47 234.764 1627.31C248.461 1636.79 247.115 1654.84 261.371 1666.05C260.916 1660.61 261.459 1657.89 260.444 1656.08C247.533 1633.36 233.627 1611.05 239.837 1582.8C240.536 1579.64 238.84 1574.71 236.496 1572.28C222.711 1558.01 226.263 1541.03 228.431 1524.39C235.848 1467.73 256.717 1413.8 262.683 1356.83C267.004 1315.41 277.412 1276.12 300.625 1240.8C306.907 1231.27 308.096 1219.85 308.988 1208.39C312.399 1164.63 315.723 1120.84 320.464 1077.19C326.585 1020.75 340.44 965.827 357.095 904.801C361.188 917.094 363.515 923.321 365.333 929.707C375.62 965.947 388.967 1001.04 403.731 1035.69C428.309 1093.47 447.429 1153.2 466.183 1213.03C468.771 1221.31 470.94 1230.39 470.311 1238.85C468.911 1257.23 469.419 1274.12 488.276 1283.33C483.116 1304.04 491.46 1318.04 504.737 1328.85C508.096 1367.23 516.616 1403.16 529.875 1437.91C542.855 1471.85 556.868 1505.43 569.497 1539.51C577.143 1560.13 580.465 1580.95 575.935 1603.76C570.88 1629.16 567.065 1655.61 577.421 1682.53C588.477 1681.27 590.559 1690.89 593.76 1698.35C602.403 1697.69 604.309 1684.73 614.857 1690.64C611.727 1709.53 637.984 1702.88 638.841 1723.52C653.832 1701.01 663.996 1716.13 675.735 1723.99C679.88 1705.43 689.956 1708.84 700.82 1716.79C703.339 1711.8 704.511 1707.4 707.221 1704.45C725.625 1684.33 724.768 1674.96 704.931 1657.47Z" fill="currentColor"/>
</svg>