<svg width="1188" height="1534" viewBox="0 0 1188 1534" fill="none" xmlns="http://www.w3.org/2000/svg">
<path d="M465.46 199.738C479.527 183.445 489.06 164.378 510.647 153.125C514.367 169.112 515.687 185.178 534.1 188.738C522.607 207.458 500.394 211.045 465.46 199.738ZM150.367 1289.55C140.261 1279.4 137.234 1270.15 147.86 1259.67C163.127 1268.74 164.087 1277.08 150.367 1289.55ZM722.82 189.218C743.78 187.392 763.26 185.698 784.807 183.818C778.567 203.632 771.834 220.752 761.994 237.445C742.02 239.925 722.887 237.792 702.554 231.258C710.54 217.525 718.514 205.085 722.82 189.218ZM780.887 176.138C762.994 181.151 744.807 183.365 723.567 182.112C731.327 170.818 755.807 168.805 780.887 176.138ZM1003.75 1385.94C989.047 1389.92 974.287 1393.11 958.727 1390.16C973.22 1384.08 988.114 1381.72 1003.75 1385.94ZM1098.25 1485.94C1113.18 1453.67 1107.83 1443.58 1073.93 1437.11C1062.37 1434.91 1050.62 1433.47 1039.1 1430.98C1011.46 1425 985.287 1415.14 958.594 1400.71C976.847 1389.54 999.26 1402.59 1015.83 1384.31C990.687 1371.47 968.073 1384.07 946.98 1384.3C940.673 1380.79 941.007 1372.5 936.34 1371.96C927.833 1372.08 927.447 1380.7 920.487 1380.39C910.86 1373.71 905.047 1363.26 898.594 1353.55C861.02 1296.92 835.354 1234.39 809.46 1172.03C808.274 1169.16 807.58 1165.88 807.5 1162.78C806.42 1114.23 799.34 1067 775.287 1023.87C741.007 962.378 700.94 904.765 656.82 849.965C645.434 835.832 633.74 821.965 622.58 808.471C624.074 784.218 629.687 761.231 626.927 738.338C624.02 714.058 643.58 695.565 639.887 672.498C647.06 666.698 654.86 663.258 658.434 652.578C656.06 641.138 654.62 627.085 650.14 614.071C642.127 590.925 644.154 571.032 660.367 551.512C670.86 538.885 677.754 523.298 686.487 509.165C689.7 503.965 690.82 496.965 698.62 494.298C705.94 502.178 715.14 507.365 726.127 510.258C736.554 527.565 747.953 544.418 759.207 561.352C789.18 606.392 835.687 605.872 881.18 605.645C892.38 605.578 903.927 602.725 915.607 604.645C927.06 606.512 938.34 604.525 948.46 599.352C961.714 592.565 975.087 588.645 990.113 590.618C994.993 591.258 1001.25 592.258 1002.91 584.832C999.447 574.192 985.794 579.232 981.234 570.712C982.62 561.165 998.274 558.725 994.154 549.098C989.887 540.765 982.527 545.378 979.167 540.712C991.847 516.125 991.847 516.125 983.913 507.805C972.873 507.618 973.687 522.431 963.007 524.138C960.58 509.605 977.78 498.045 969.394 483.671C959.927 477.445 956.847 486.765 950.673 490.485C946.807 489.525 942.3 486.538 935.5 490.845C921.98 508.978 916.914 535.351 894.86 553.871C865.234 531.858 830.847 515.045 813.113 480.605C816.38 471.738 825.34 469.952 826.167 461.392C814.54 435.045 802.634 408.152 790.834 381.218C779.82 356.152 768.247 331.392 752.313 308.992C743.593 296.712 734.887 282.085 720.207 278.538C696.407 272.818 679.42 255.685 657.954 246.565C654.807 245.232 650.38 244.245 651.634 238.271C670.26 229.285 688.913 234.805 707.673 238.938C726.487 243.085 745.394 246.738 765.5 242.498C778.954 221.032 786.127 197.098 795.367 172.005C771.127 162.832 746.634 169.605 722.967 165.965C719.247 160.458 715.314 155.432 717.687 147.365C742.447 137.685 772.647 146.165 798.847 126.392C780.82 111.685 758.26 116.552 740.86 104.165C738.54 93.2983 735.527 81.4183 733.527 69.365C729.06 42.5783 713.607 25.2451 689.14 14.5517C664.527 3.80505 638.794 -0.381771 612.287 0.591563C551.087 2.83156 518.794 29.9648 505.287 89.4715C504.114 94.6582 503.527 100.058 498.554 105.592C464.834 102.312 440.594 123.365 411.58 142.232C425.5 145.032 433.167 135.698 444.66 137.378C430.06 155.965 412.967 164.792 388.234 158.992C399.674 178.272 415.647 171.312 431.9 169.592C424.274 181.538 422.74 193.338 418.527 206.498C391.594 207.392 370.34 226.885 343.594 231.112C320.807 234.725 298.474 240.338 276.46 247.312C218.66 265.645 175.781 298.525 157.501 359.778C145.394 400.352 133.154 440.712 126.901 480.992C122.754 486.712 116.007 483.258 113.527 488.071C110.834 497.111 108.94 506.085 105.487 514.418C97.3803 534.018 92.6068 553.618 96.0068 575.271C99.1668 595.471 106.447 606.565 124.447 611.698C143.007 617.005 161.674 611.205 172.847 596.671C170.474 584.765 158.807 579.925 151.94 570.858C165.447 555.312 171.567 537.285 175.527 518.165C186.78 463.792 208.287 414.072 243.514 370.765C246.714 366.818 249.073 361.272 255.54 361.512C262.7 366.898 260.5 376.738 267.287 384.245C300.194 374.058 333.727 379.578 367.434 385.912C380.114 454.845 364.1 525.045 382.647 589.898C378.02 603.165 364.554 603.925 360.967 613.485C359.194 624.485 368.527 628.791 373.327 636.805C370.247 658.618 369.714 681.125 354.98 701.285C341.234 720.098 336.367 743.112 334.967 766.578C332.234 812.872 350.767 851.338 379.86 885.271C390.7 897.911 395.113 911.152 395.807 927.378C397.647 971.832 400.914 1016.19 405.834 1060.46C406.98 1070.79 410.687 1081.14 407.954 1093.06C363.114 1097.72 318.354 1094.6 274.901 1106.32C231.394 1118.07 190.527 1137.3 155.007 1148.06C114.407 1137.68 80.8334 1130.46 46.4734 1128.82C32.3534 1128.15 24.9536 1139.88 23.2203 1153.32C22.047 1162.4 20.2202 1171.08 17.9135 1179.2C26.6202 1217.72 34.7139 1256.12 17.1005 1296.5C28.7805 1314.02 31.6603 1334.5 23.4203 1356.83C28.3536 1360.9 34.7268 1363.56 36.6068 1371.42C38.3134 1378.56 42.1539 1385.36 45.9672 1391.76C56.5405 1409.52 71.0604 1409.26 81.4604 1391.3C87.4471 1380.98 89.9537 1369.39 92.9271 1357.98C100.5 1328.76 115.114 1303.28 133.247 1278.28C137.594 1284.03 140.447 1287.82 142.873 1291C150.407 1294.03 157.007 1293.51 160.98 1287.36C171.58 1270.98 156.594 1259.6 151.754 1246.51C163.847 1232.72 181.46 1224.84 211.047 1221.18C261.82 1214.88 312.7 1217.66 363.607 1219.1C381.953 1219.62 398.767 1228.8 416.914 1226.92C441.994 1224.35 466.607 1218.79 490.527 1210.58C513.98 1202.51 531.247 1187.9 541.54 1164.78C557.7 1128.47 572.167 1091.64 581.087 1052.79C581.967 1048.98 580.727 1043.82 588.034 1041.56C620.874 1070.78 658.767 1097.26 672.127 1143.15C692.407 1212.71 725.407 1274.95 771.78 1330.54C790.287 1352.72 808.407 1375.42 823.06 1400.51C830.207 1412.75 835.433 1425.48 833.007 1440.27C830.42 1444.66 822.22 1443.72 822.673 1454.23C822.633 1457.18 830.5 1457.99 831.58 1464.12C831.287 1468.87 832.7 1474.42 827.327 1479.43C821.114 1479.43 814.194 1479.54 807.26 1479.42C625.514 1476.55 443.767 1475.14 262.034 1479.84C181.154 1481.92 100.127 1482.99 19.8734 1495.24C12.8468 1496.31 4.7001 1495.66 0.273438 1503.87C5.16677 1512.22 13.9404 1512.3 21.3937 1513.42C40.9804 1516.42 60.6736 1518.99 80.4203 1520.56C180.42 1528.55 280.674 1530.38 380.914 1531.71C606.634 1534.7 832.327 1533.34 1057.87 1522.83C1095.82 1521.07 1133.95 1519.2 1171.34 1511.3C1177.26 1510.04 1184.14 1510.04 1187.86 1500.59C1158.75 1489.62 1127.78 1492.28 1098.25 1485.94Z" fill="currentColor"/>
</svg>
