<svg width="944" height="1527" viewBox="0 0 944 1527" fill="none" xmlns="http://www.w3.org/2000/svg">
<path d="M572.991 222.377C577.058 203.457 585.818 193.177 599.218 184.217C608.631 191.097 618.111 198.003 629.738 206.483C610.524 211.87 593.404 216.67 572.991 222.377ZM169.151 1415.99C170.618 1421.82 172.098 1427.66 173.564 1433.47C172.484 1433.91 171.431 1434.36 170.351 1434.8C167.071 1427.79 163.818 1420.78 160.604 1413.92C165.511 1410.19 166.244 1416.19 169.151 1415.99ZM804.298 206.95C819.084 206.177 832.551 205.47 847.844 204.657C848.871 219.83 849.818 233.763 850.951 250.563C821.458 255.417 795.258 253.67 769.231 237.536C787.818 234.71 799.978 225.283 804.298 206.95ZM817.378 177.27C836.351 177.23 854.458 176.55 874.578 184.723C854.458 200.617 833.711 200.363 809.738 200.936C812.871 191.23 814.991 184.683 817.378 177.27ZM857.018 239.963C855.164 224.923 853.938 214.87 852.578 203.75C858.044 200.03 862.418 197.11 869.164 198.417C869.164 211.55 865.111 223.363 857.018 239.963ZM943.404 659.23C942.084 627.123 928.338 613.937 891.484 609.457C862.898 584.097 855.391 568.043 853.964 529.23C857.364 525.19 860.844 521.043 862.684 518.83C866.604 471.497 849.364 428.923 847.111 384.617C843.951 322.71 814.031 281.723 756.471 259.857C750.364 257.537 742.764 255.937 739.138 247.577C745.964 244.683 752.404 241.95 759.364 239.003C783.631 259.03 812.124 259.056 840.978 257.403C848.431 256.963 855.004 254.843 859.191 248.003C871.698 227.47 877.671 205.15 878.791 180.91C859.938 171.083 839.231 174.616 819.831 169.136C819.911 156.83 810.791 146.737 813.058 133.923C835.071 127.67 859.244 136.337 879.964 123.417C875.498 114.47 868.031 113.577 862.124 113.417C834.578 112.657 822.951 97.7499 819.151 71.7633C815.498 46.7766 803.351 25.39 779.058 14.8833C735.631 -3.89002 691.324 -4.02351 647.831 14.5898C626.938 23.5365 612.351 40.0833 603.231 61.1633C594.004 82.4699 593.498 104.857 594.258 127.55C594.538 136.017 597.738 145.15 588.658 155.39C546.978 147.91 524.991 176.657 504.844 208.457C496.378 221.817 483.951 220.23 471.058 216.87C458.578 213.59 446.858 213.617 437.924 225.857C444.644 229.257 449.338 223.443 455.271 224.657C458.884 226.457 462.124 229.03 462.604 233.63C420.338 260.59 371.898 270.71 326.191 283.203C324.004 290.616 322.778 294.723 321.658 298.497C279.831 315.097 274.364 318.337 266.778 349.057C254.444 399.123 241.098 449.11 238.138 501.043C235.458 548.097 234.898 595.763 206.538 636.91C192.978 656.563 199.378 677.777 204.711 697.363C208.031 709.537 218.004 720.51 230.498 726.003C240.591 717.75 233.884 706.123 239.844 696.403C244.431 706.056 246.804 716.71 260.324 711.457C264.964 687.163 249.404 657.456 277.671 640.47C293.524 643.963 288.711 670.39 312.018 666.377C307.378 644.243 306.324 622.016 297.911 603.07C285.404 574.896 287.284 547.483 292.551 519.203C299.311 482.816 310.618 447.843 326.751 414.523C330.978 405.777 334.151 396.19 342.671 388.857C365.844 435.803 401.964 408.763 434.951 403.643C434.951 411.363 435.151 417.31 434.924 423.217C433.351 462.817 428.511 501.67 417.311 540.083C411.404 560.283 406.724 579.79 392.471 596.043C386.831 602.483 381.964 610.27 382.884 619.923C384.644 638.537 378.044 653.657 365.804 667.857C337.044 701.243 317.604 738.483 321.511 784.71C324.311 818.11 337.298 847.177 357.004 872.883C348.551 922.217 340.818 970.617 338.098 1019.42C334.871 1077.23 300.818 1113.76 256.751 1143.44C234.764 1158.26 215.431 1174.86 203.538 1198.4C179.618 1245.67 137.684 1273.99 96.7644 1303.6C91.5378 1302.35 86.8578 1301.26 80.2978 1299.7C52.0844 1325.34 12.2444 1340.16 0.631104 1383.87C4.65777 1384.4 9.24423 1385.02 14.3509 1385.68C18.6842 1394.26 22.8709 1402.54 25.2709 1407.27C27.8309 1416.31 19.8042 1419 23.4842 1425.7H37.0043C54.6309 1447.2 74.9242 1465.95 83.2176 1489.9C82.1242 1499.1 73.0977 1500.88 75.591 1509.63C81.1243 1508.04 86.4844 1506.51 92.4444 1504.78C97.5511 1512 102.244 1518.66 107.498 1526.1H190.498C197.991 1509.99 196.364 1503.94 182.298 1493.92C156.764 1475.72 149.671 1456.04 157.671 1424.04C165.791 1428.67 164.898 1440.2 174.604 1444.66C180.724 1433.18 177.151 1424.23 169.458 1415.95C169.471 1415.95 169.471 1415.95 169.484 1415.95C163.338 1407.62 167.111 1399.08 170.804 1387.52C166.698 1385.44 161.791 1382.92 154.391 1379.14C219.858 1312 307.404 1280.26 365.644 1216.02C400.618 1207.91 421.831 1195.22 439.884 1170.58C474.084 1123.91 505.711 1075.74 524.484 1020.32C526.551 1014.22 529.338 1008.35 532.551 1000.48C568.404 1022.42 602.764 1043.43 637.658 1064.76C628.911 1078.19 620.884 1087.14 606.711 1090.75C588.431 1095.4 573.751 1106.98 566.111 1124.48C544.058 1174.99 505.058 1212.78 470.498 1253.88C467.391 1257.58 463.351 1260.66 459.284 1263.34C425.991 1285.35 388.578 1303.96 389.404 1352.78C389.471 1356.19 386.271 1359.59 384.978 1363.12C384.498 1364.42 385.071 1366.1 385.178 1367.68C390.191 1369.55 395.484 1365.43 401.751 1371.16C404.324 1374.83 408.404 1380.67 411.818 1385.54C413.671 1392.43 404.058 1395.07 408.284 1401.64C414.178 1406.56 418.884 1396.3 427.671 1401.8C438.591 1418.06 464.178 1429.38 458.044 1459.67C469.058 1459.99 478.471 1463.36 482.604 1471.67C486.938 1478.6 478.338 1483.99 484.884 1489.19C489.071 1488.07 493.684 1486.84 498.084 1485.67C511.098 1494.19 526.818 1498.11 531.698 1514.38C537.551 1512.68 542.138 1510.23 546.724 1510.24C557.258 1510.24 568.671 1512.02 574.324 1500.62C580.751 1487.64 574.458 1476.31 567.191 1465.4C545.298 1432.51 540.551 1394.11 533.044 1356.66C532.458 1353.7 533.404 1349.95 534.831 1347.16C540.844 1335.38 542.418 1323.34 536.951 1309.92C583.338 1253.14 647.151 1217.48 700.124 1170.47C717.258 1171.36 730.511 1165.72 741.778 1155C753.711 1143.63 765.564 1132.18 777.604 1120.96C817.724 1083.6 821.911 1054.06 794.071 1007.19C767.458 962.377 733.764 923.483 696.404 887.43C667.138 859.19 635.218 834.097 601.791 808.683C608.391 772.39 614.898 736.497 621.404 700.683C627.391 700.043 632.191 700.643 635.938 698.923C650.404 692.35 671.858 689.323 669.858 668.643C662.858 596.203 717.924 558.99 755.164 510.323C761.391 515.563 766.791 520.083 771.311 523.87C776.458 552.176 780.031 579.496 786.604 606.07C795.444 641.856 829.631 670.323 859.578 668.736C868.911 668.243 878.124 665.577 887.844 663.843C886.711 673.963 878.698 680.483 879.644 689.536C882.738 696.043 887.444 696.91 893.524 694.91C898.978 693.123 902.111 686.323 908.991 687.457C910.391 694.097 901.991 699.523 907.351 706.123C924.911 703.057 944.178 677.91 943.404 659.23Z" fill="currentColor"/>
</svg>
