<svg width="1080" height="1371" viewBox="0 0 1080 1371" fill="none" xmlns="http://www.w3.org/2000/svg">
<path d="M717.9 174.39C712.807 174.23 711.247 176.51 712.887 181.364C719.314 181.51 718.953 177.91 717.673 173.777L718.394 174.364L717.9 174.39ZM1032.27 327.817C1047.01 326.31 1060.61 317.417 1079.35 320.977C1067.65 337.924 1041.1 328.63 1033.99 350.057C1048.46 353.19 1060.87 341.59 1073.57 345.724C1075.65 351.63 1073.51 354.524 1070.07 355.457C1025.7 367.377 1007.47 404.937 990.78 441.137C970.313 485.484 952.14 530.777 923.007 570.43C914.553 581.95 906.34 594.457 890.154 595.31C847.06 578.737 827.3 543.564 813.713 503.244C809.273 490.084 804.834 476.777 787.794 475.47C747.674 516.604 714.994 563.71 677.527 606.777C674.794 616.177 671.913 626.644 667.407 636.884C672.753 647.59 683.78 651.364 692.247 657.91C748.38 701.31 801.034 748.484 849.327 800.537C870.354 823.204 890.754 846.737 913.9 867.07C937.674 887.964 943.367 910.124 934.78 940.404C910.207 1027.11 889.633 1114.87 872.447 1203.36C869.073 1220.72 866.247 1238.63 874.754 1254.58C882.62 1259 887.447 1251.31 893.74 1252.54C903.753 1261.43 913.234 1259.4 926.22 1252.59C912.327 1245.66 902.954 1253.31 893.127 1252.94C904.807 1241.71 917.327 1240.07 932.073 1248.28C923.233 1270.08 904.327 1260.9 888.22 1265.55C898.94 1289.19 915.967 1304.15 940.62 1309.98C953.967 1313.14 967.66 1314.82 981.207 1317.11C989.38 1318.5 995.367 1322.54 997.127 1331.03C998.82 1339.23 995.66 1346 989.46 1351.18C982.82 1356.71 973.194 1359.19 972.9 1370.1C963.127 1366.18 802.687 1366.03 795.54 1369.71C789.033 1351.3 760.82 1360.1 756.273 1336.2C758.02 1314.15 775.22 1293.64 771.887 1267.35C787.1 1259.82 787.26 1245.26 787.887 1230.91C789.994 1183.59 793.714 1136.6 784.22 1089.14C777.047 1053.3 793.047 1018.78 800.994 984.097C807.447 955.924 805.674 947.55 780.567 933.377C759.687 921.577 737.313 912.417 715.447 902.43C692.313 891.87 668.86 881.99 645.794 871.297C622.874 860.657 600.247 849.364 575.007 837.164C557.42 877.137 539.834 915.75 523.42 954.857C509.58 987.83 494.713 1020.23 478.873 1052.34C458.58 1093.47 424.3 1110.78 381.5 1114.84C363.327 1116.58 345.167 1117.82 326.567 1111.35C311.78 1106.2 295.167 1111.15 279.98 1115.91C248.447 1125.79 217.7 1137.83 188.247 1152.82C135.287 1179.78 100.82 1252.15 138.567 1308C146.22 1319.34 152.567 1332.68 140.607 1345.82C132.967 1354.2 123.114 1356.54 112.327 1354.03C101.247 1351.44 97.7803 1339.91 89.5937 1333.8C84.7137 1328.67 79.2868 1335.35 72.6468 1333.27C74.3268 1316.43 74.0071 1300.03 48.5005 1300.43C56.1405 1285.32 51.3268 1272.75 42.1801 1260.02C37.6335 1259.72 32.3935 1259.39 27.3801 1259.07C25.4868 1250.36 36.5001 1250.3 35.6468 1237.46C33.2335 1224.34 28.2201 1205.88 20.9135 1189.67C15.7935 1183.31 8.86035 1190.18 4.86035 1184.82C2.22035 1175.67 15.207 1178.82 14.927 1174.62C16.3804 1159.14 12.087 1149.1 0.860352 1142.78C26.1803 1108.38 63.1 1095.86 100.873 1109.34C143.38 1085.84 181.567 1054.15 222.634 1026.75C264.794 998.617 315.22 995.364 364.3 980.257C367.114 976.55 371.607 970.644 376.367 964.377C377.967 913.057 381.647 861.724 391.94 810.977C397.02 785.91 396.94 760.457 394.127 734.95C390.54 702.417 394.554 670.51 403.087 639.004C408.54 618.87 418.847 602.39 436.873 591.537C452.073 582.404 454.5 564.097 466.26 553.39C453.927 514.884 466.473 480.297 480.513 446.817C495.793 410.35 508.074 373.524 510.287 333.817C510.554 329.03 510.9 324.257 511.247 318.817C486.7 295.444 454.58 294.044 422.887 290.537C420.234 278.337 417.94 267.777 415.594 257.004C383.794 253.284 359.327 257.497 340.287 288.737C313.594 332.55 290.554 377.257 275.727 426.284C267.114 454.737 256.38 482.15 234.58 503.684C225.82 512.337 217.42 521.377 205.74 525.004C198.66 523.164 204.567 517.097 201.14 514.457C194.233 513.577 188.834 520.884 181.394 518.177C172.354 505.79 169.02 491.897 170.994 475.377C196.3 461.084 207.247 432.75 226.327 411.377C230.714 406.457 230.38 399.924 231.327 393.817C242.3 322.444 268.447 257.564 313.567 200.617C321.7 190.364 331.087 184.43 343.834 181.164C419.567 161.697 496.954 160.444 574.367 159.43C591.687 159.204 608.1 164.617 624.007 170.044C653.407 134.417 660.953 131.177 695.873 139.537C699.273 127.097 693.007 115.63 692.14 103.817C688.94 60.6171 705.833 32.4971 746.007 16.7371C764.007 9.67046 782.7 4.96369 801.74 2.03035C847.407 -5.02298 877.14 12.0705 894.767 54.9371C897.874 62.5105 900.807 70.1638 903.34 76.5371C920.313 87.8305 941.354 81.7771 959.127 95.6705C939.767 110.95 915.66 105.377 896.647 114.897C890.74 128.47 903.98 136.097 906.594 148.63C890.474 167.137 891.58 194.23 878.994 216.057C860.62 222.51 841.74 215.99 823.754 219.404C817.46 223.244 812.914 228.004 811.327 239.15C845.047 264.39 880.34 291.844 886.66 339.67C892.207 381.604 921.247 420.737 903.154 466.457C908.14 468.604 910.727 463.177 912.807 459.657C931.047 428.67 955.14 402.017 964.047 364.417C971.607 332.524 998.993 310.324 1023.58 292.27C1036.73 295.804 1028.57 305.23 1034.34 308.844C1030.77 307.684 1027.03 305.43 1024.49 310.43C1022.29 311.857 1020.1 313.27 1017.95 314.657C1018.11 314.457 1018.22 314.284 1018.34 314.11C1020.25 312.724 1022.14 311.337 1024.05 309.95C1027.45 309.564 1030.86 309.177 1034.26 308.79C1043.15 303.324 1051.63 296.244 1064.75 300.844C1059.13 317.91 1038.18 313.59 1031.22 326.79C1029.47 327.324 1027.27 327.657 1029.7 330.137C1030.58 329.337 1031.42 328.577 1032.27 327.817Z" fill="currentColor"/>
</svg>
