<svg width="1228" height="1495" viewBox="0 0 1228 1495" fill="none" xmlns="http://www.w3.org/2000/svg">
<path d="M504.151 238.659C489.711 241.005 476.111 245.112 462.551 255.152C449.311 249.432 436.977 244.099 422.964 238.045C465.404 226.552 469.297 221.499 469.844 176.632C469.977 164.899 470.511 154.005 482.684 148.339C509.497 173.552 514.204 203.859 504.151 238.659ZM1226.28 56.9253C1220.71 64.8986 1223.84 76.6454 1214.28 83.512C1205.19 53.6454 1183.06 39.3919 1156.07 31.4719C1147.03 28.8053 1139.7 24.4986 1133.3 18.0719C1133.24 23.6986 1131.64 27.5653 1125.03 29.8719C1110.36 35.0186 1096.15 41.5387 1080.78 47.912C1077.8 44.6187 1074.46 40.9253 1068.08 33.8586C1069.74 43.8053 1070.63 49.0453 1071.59 54.8187C1052.72 69.712 1034.3 84.2319 1016.98 97.8719C1009.22 95.4586 1011.18 85.0986 1001.66 86.3653C1005.08 92.872 1008.23 98.872 1011.26 104.619C1004.82 121.939 990.791 136.005 993.937 156.592C936.551 170.392 882.004 190.792 827.071 210.192C770.444 230.192 710.004 206.272 652.364 224.099C653.284 193.432 692.097 170.259 661.711 137.632C686.204 133.965 708.631 137.192 729.857 120.299C705.617 111.792 682.671 112.632 663.697 101.165C657.137 87.992 651.844 74.4853 642.151 63.4853C618.697 36.832 588.991 28.9519 555.257 35.9386C527.697 41.6586 501.511 53.7386 495.017 83.1386C489.604 107.685 476.297 118.272 455.084 126.925C420.164 141.179 411.137 161.325 417.871 199.005C419.444 207.819 425.364 216.525 421.924 223.072C380.404 245.525 341.911 240.032 301.351 222.285C325.151 160.619 374.884 125.059 418.551 84.792C446.671 94.4053 471.284 97.5786 489.071 72.032C500.897 55.032 501.711 35.992 490.924 18.7253C472.257 -11.1947 444.937 2.79198 418.871 7.19198C414.577 15.1653 405.657 18.4719 396.911 23.5386C395.097 31.0453 393.191 38.832 391.137 47.2586C349.564 67.4853 317.844 101.192 281.497 128.712C258.364 146.205 238.604 167.245 223.311 192.192C205.551 221.112 205.817 231.365 227.364 258.125C243.097 277.645 259.711 296.459 283.751 311.005C280.004 348.739 305.844 358.592 337.004 362.579C358.977 365.392 370.497 378.059 376.871 399.072C386.004 429.125 392.364 459.752 399.991 490.139C412.471 539.752 414.231 594.539 462.151 627.739C459.831 642.405 452.404 653.259 442.377 661.952C414.684 686.032 402.017 716.645 399.084 752.685C396.751 781.179 394.777 810.059 388.431 837.805C372.471 907.632 345.431 973.952 318.071 1039.89C311.191 1056.45 297.284 1070.43 282.084 1082.13C241.577 1113.29 196.724 1139.99 174.484 1189.93C164.817 1211.63 150.711 1231.03 133.644 1246.91C83.204 1250.37 83.204 1250.37 53.764 1279.19C66.084 1309.85 35.6439 1367.41 2.79061 1384.17C16.8039 1406.38 1.01743 1431.42 9.35076 1450.82C9.31076 1460.37 -0.52929 1460.11 0.564043 1467.19C4.57738 1479.99 13.5373 1466.41 18.6573 1470.17C42.0839 1496.39 60.6706 1494.07 76.5239 1463.23C79.9373 1456.61 82.0173 1449.27 84.7239 1442.26C90.9773 1426.1 98.5773 1410.71 109.511 1396.67C115.871 1403.07 109.724 1412.13 117.551 1418.47V1381.59C134.084 1365.54 146.711 1347.43 158.817 1328.21C176.924 1299.5 203.391 1276.83 230.977 1257.37C271.817 1228.55 306.497 1192.55 355.351 1172.54C395.324 1156.18 423.177 1116.93 446.257 1078.63C491.977 1002.85 544.097 931.325 591.671 856.779C594.257 852.725 597.804 849.259 601.937 844.259C678.724 907.339 769.551 948.885 842.431 1014.43C843.164 1023.25 841.097 1030.94 845.804 1039.31C849.711 1042.01 854.751 1045.45 859.964 1049.02C860.217 1065.01 872.831 1075.95 874.217 1091.7C878.431 1140.09 895.617 1183.59 922.097 1224.65C951.977 1270.99 970.324 1319.99 928.751 1368.3C931.791 1381.9 940.591 1388.97 945.697 1398.5C945.577 1404.51 939.417 1411.82 948.684 1416.43C955.004 1418.54 956.337 1407.61 964.657 1411.57C975.484 1421.46 989.217 1430.06 1004.98 1437.82C997.844 1468.94 1035.96 1467.42 1040.46 1492.17C1056.9 1476.9 1074.18 1488.97 1089.19 1485.37C1096.26 1486.78 1096.8 1497.57 1108.12 1492.97C1111.88 1489.66 1109.48 1479.79 1118.24 1475.31C1130.72 1468.93 1130.06 1457.77 1123.6 1446.25C1115.43 1431.7 1103.6 1420.67 1090.96 1410.25C1074.32 1396.55 1063.34 1379.21 1055.56 1356.81C1075.1 1358.38 1091.99 1359.77 1112.72 1361.45C1087.99 1350.63 1061.19 1361.53 1042.76 1341.03C1052.36 1330.5 1066.58 1338.87 1076.4 1328.1C1060.54 1330.23 1046.36 1332.14 1032.3 1334.05C1021.68 1322.78 1022.28 1308.42 1021.06 1294.9C1013.42 1210.57 1006.43 1126.14 980.511 1044.75C979.404 1041.34 979.511 1037.41 979.737 1033.74C981.804 999.765 973.271 968.739 954.964 940.099C894.631 845.712 820.857 761.885 749.644 675.939C734.737 657.939 713.817 637.552 724.084 605.965C739.471 597.325 739.017 581.525 733.951 565.845C715.604 508.872 722.897 452.245 731.977 394.725C736.497 366.179 750.511 348.965 774.351 337.805C791.644 329.712 806.324 320.405 808.937 297.765C880.164 277.005 945.244 243.779 1007.04 202.685C1021.02 215.045 1038.12 216.592 1051.71 225.059C1059.07 241.979 1057.1 261.472 1070.3 282.525C1067.5 260.925 1059.94 246.579 1061.87 227.939C1083.08 253.299 1108.15 258.139 1136.23 250.059C1086.82 245.165 1085.15 244.605 1071.96 226.059C1158.16 200.805 1236.07 115.685 1226.28 56.9253ZM1132.98 17.592C1132.98 17.592 1132.98 17.5919 1132.96 17.6053C1132.94 17.6319 1132.92 17.632 1132.92 17.6454H1132.91V17.6586H1132.88C1133.03 17.8053 1133.15 17.9386 1133.3 18.0719V17.312C1133.3 17.312 1133.08 17.4853 1132.98 17.592Z" fill="currentColor"/>
</svg>
